<svg width="264" height="184" viewBox="0 0 264 184" fill="none" xmlns="http://www.w3.org/2000/svg">
<g clip-path="url(#clip0_33_3)">
<path d="M52.6003 184C81.6506 184 105.201 182.208 105.201 179.998C105.201 177.788 81.6506 175.996 52.6003 175.996C23.5499 175.996 0 177.788 0 179.998C0 182.208 23.5499 184 52.6003 184Z" fill="#E6E6E6"/>
<path d="M40.2065 40.8264C49.3606 36.926 60.7621 39.3972 71.8968 41.1124C72.0005 39.0354 73.2564 36.5075 71.9408 35.0585C70.3424 33.298 70.4896 31.4483 71.4514 29.5879C73.9109 24.8306 70.3871 19.7685 66.8291 15.5595C66.0272 14.613 65.0137 13.8692 63.8709 13.3887C62.7282 12.9083 61.4884 12.7046 60.2523 12.7942L53.6614 13.2658C52.0576 13.3806 50.5271 13.9833 49.2745 14.9932C48.022 16.0032 47.1072 17.3723 46.6526 18.9173C45.0789 21.0614 44.2366 23.1996 44.7669 25.3266C42.4097 26.9403 42.0136 28.8882 43.0729 31.0842C43.9711 32.4668 43.9615 33.8127 43.032 35.1213C41.8113 36.7898 40.8763 38.6501 40.2655 40.6261L40.2065 40.8264Z" fill="#2F2E41"/>
<path d="M257.744 159.065H71.1738C69.5146 159.065 67.9234 158.405 66.7502 157.23C65.5771 156.054 64.918 154.46 64.918 152.798C132.55 144.924 198.91 144.924 264 152.798C264 154.46 263.341 156.054 262.168 157.23C260.994 158.405 259.403 159.065 257.744 159.065Z" fill="#2F2E41"/>
<path d="M264 153.167L64.918 152.798L87.9909 113.908L88.1013 113.723V28.0124C88.1012 26.9721 88.3057 25.9419 88.7031 24.9807C89.1004 24.0196 89.6829 23.1462 90.4173 22.4106C91.1516 21.675 92.0235 21.0914 92.9829 20.6934C93.9424 20.2953 94.9708 20.0904 96.0093 20.0905H231.805C232.843 20.0904 233.871 20.2953 234.831 20.6934C235.79 21.0914 236.662 21.675 237.397 22.4106C238.131 23.1462 238.713 24.0196 239.111 24.9807C239.508 25.9419 239.713 26.9721 239.713 28.0124V114.313L264 153.167Z" fill="#3F3D56"/>
<path d="M95.8289 25.62C95.1459 25.6208 94.4912 25.8929 94.0082 26.3766C93.5253 26.8604 93.2537 27.5163 93.2529 28.2004V106.351C93.2537 107.035 93.5254 107.691 94.0083 108.174C94.4912 108.658 95.1459 108.93 95.8289 108.931H233.089C233.772 108.93 234.426 108.658 234.909 108.174C235.392 107.691 235.664 107.035 235.665 106.351V28.2004C235.664 27.5163 235.392 26.8604 234.909 26.3767C234.426 25.8929 233.772 25.6208 233.089 25.62H95.8289Z" fill="white"/>
<path d="M96.4045 119.253C96.1934 119.253 95.9869 119.314 95.8092 119.428C95.6315 119.542 95.49 119.704 95.4015 119.896L88.292 135.379C88.2146 135.547 88.1808 135.733 88.1936 135.918C88.2064 136.103 88.2654 136.282 88.3653 136.438C88.4652 136.594 88.6026 136.722 88.7651 136.811C88.9275 136.9 89.1097 136.947 89.2948 136.947H238.803C238.992 136.947 239.177 136.899 239.341 136.807C239.505 136.715 239.644 136.583 239.742 136.423C239.841 136.262 239.898 136.079 239.906 135.891C239.915 135.702 239.875 135.515 239.791 135.347L232.063 119.864C231.972 119.68 231.831 119.525 231.656 119.417C231.482 119.309 231.281 119.252 231.076 119.253H96.4045Z" fill="#2F2E41"/>
<path d="M163.907 24.3298C164.821 24.3298 165.563 23.5871 165.563 22.6709C165.563 21.7548 164.821 21.0121 163.907 21.0121C162.992 21.0121 162.251 21.7548 162.251 22.6709C162.251 23.5871 162.992 24.3298 163.907 24.3298Z" fill="white"/>
<path d="M149.211 139.896C148.969 139.896 148.733 139.977 148.54 140.125C148.348 140.272 148.209 140.48 148.146 140.714L146.362 147.35C146.318 147.514 146.312 147.686 146.345 147.852C146.378 148.019 146.449 148.175 146.552 148.31C146.655 148.445 146.788 148.554 146.94 148.629C147.091 148.704 147.259 148.743 147.428 148.743H181.343C181.519 148.743 181.693 148.701 181.849 148.62C182.006 148.54 182.14 148.422 182.243 148.279C182.345 148.135 182.411 147.969 182.436 147.795C182.461 147.62 182.444 147.442 182.386 147.276L180.093 140.64C180.018 140.423 179.877 140.235 179.69 140.101C179.503 139.968 179.28 139.896 179.05 139.896H149.211Z" fill="#2F2E41"/>
<path d="M239.712 112.433V113.907H87.9907L88.1049 113.723V112.433H239.712Z" fill="#2F2E41"/>
<path d="M235.481 51.6086C249.707 51.6086 261.24 40.0556 261.24 25.8043C261.24 11.553 249.707 0 235.481 0C221.254 0 209.722 11.553 209.722 25.8043C209.722 40.0556 221.254 51.6086 235.481 51.6086Z" fill="#D81F1F"/>
<path d="M246.153 37.0476H224.809C224.419 37.0472 224.045 36.8918 223.769 36.6153C223.493 36.3389 223.338 35.964 223.337 35.5731V22.6709C223.338 22.28 223.493 21.9052 223.769 21.6288C224.045 21.3523 224.419 21.1968 224.809 21.1964H246.153C246.543 21.1968 246.917 21.3523 247.193 21.6288C247.469 21.9052 247.624 22.28 247.625 22.6709V35.5731C247.624 35.964 247.469 36.3389 247.193 36.6153C246.917 36.8918 246.543 37.0472 246.153 37.0476ZM224.809 22.6709V35.5731H246.154L246.153 22.6709L224.809 22.6709Z" fill="white"/>
<path d="M242.105 22.6709H228.857V16.7728C228.857 12.5008 231.643 9.40015 235.481 9.40015C239.319 9.40015 242.105 12.5008 242.105 16.7728L242.105 22.6709ZM230.329 21.1964H240.633V16.7728C240.633 13.3001 238.514 10.8747 235.481 10.8747C232.447 10.8747 230.329 13.3001 230.329 16.7728L230.329 21.1964Z" fill="white"/>
<path d="M235.481 30.2279C236.294 30.2279 236.953 29.5677 236.953 28.7533C236.953 27.939 236.294 27.2788 235.481 27.2788C234.668 27.2788 234.009 27.939 234.009 28.7533C234.009 29.5677 234.668 30.2279 235.481 30.2279Z" fill="white"/>
<path d="M217.499 82.4232H111.419C110.899 82.4226 110.399 82.2151 110.031 81.8462C109.663 81.4773 109.456 80.9771 109.455 80.4554V54.0956C109.456 53.5738 109.663 53.0737 110.031 52.7047C110.399 52.3358 110.899 52.1283 111.419 52.1277H217.499C218.02 52.1283 218.519 52.3358 218.887 52.7047C219.256 53.0737 219.463 53.5738 219.463 54.0956V80.4554C219.463 80.9771 219.256 81.4773 218.887 81.8462C218.519 82.2151 218.02 82.4226 217.499 82.4232ZM111.419 52.9148C111.107 52.9152 110.807 53.0397 110.586 53.261C110.365 53.4824 110.241 53.7825 110.241 54.0956V80.4554C110.241 80.7684 110.365 81.0685 110.586 81.2899C110.807 81.5112 111.107 81.6357 111.419 81.6361H217.499C217.811 81.6357 218.111 81.5112 218.332 81.2899C218.553 81.0685 218.677 80.7684 218.678 80.4554V54.0956C218.677 53.7825 218.553 53.4824 218.332 53.261C218.111 53.0397 217.811 52.9152 217.499 52.9148L111.419 52.9148Z" fill="#E6E6E6"/>
<path d="M127.902 74.2801C132.321 74.2801 135.904 70.6912 135.904 66.264C135.904 61.8369 132.321 58.248 127.902 58.248C123.483 58.248 119.9 61.8369 119.9 66.264C119.9 70.6912 123.483 74.2801 127.902 74.2801Z" fill="#E6E6E6"/>
<path d="M146.383 60.92C146.207 60.9198 146.034 60.9541 145.872 61.0211C145.71 61.0881 145.562 61.1865 145.438 61.3106C145.314 61.4347 145.216 61.5821 145.149 61.7443C145.081 61.9065 145.047 62.0804 145.047 62.2561C145.047 62.4317 145.081 62.6056 145.149 62.7678C145.216 62.93 145.314 63.0774 145.438 63.2015C145.562 63.3256 145.71 63.424 145.872 63.491C146.034 63.558 146.207 63.5923 146.383 63.5921H209.256C209.61 63.5921 209.949 63.4513 210.199 63.2007C210.449 62.9502 210.59 62.6104 210.59 62.2561C210.59 61.9017 210.449 61.5619 210.199 61.3113C209.949 61.0608 209.61 60.92 209.256 60.92H146.383Z" fill="#E6E6E6"/>
<path d="M146.383 68.936C146.029 68.936 145.69 69.0768 145.44 69.3273C145.19 69.5779 145.049 69.9177 145.049 70.272C145.049 70.6264 145.19 70.9662 145.44 71.2167C145.69 71.4673 146.029 71.6081 146.383 71.6081H173.437C173.791 71.6081 174.13 71.4673 174.381 71.2167C174.631 70.9662 174.771 70.6264 174.771 70.272C174.771 69.9177 174.631 69.5779 174.381 69.3273C174.13 69.0768 173.791 68.936 173.437 68.936H146.383Z" fill="#E6E6E6"/>
<path d="M87.7299 69.4765L68.1203 79.9202L67.8721 71.2171C74.2725 70.1468 80.3619 68.2833 85.9923 65.2494L88.0432 60.1735C88.2667 59.6205 88.6299 59.1351 89.0972 58.7651C89.5645 58.3951 90.1198 58.1532 90.7087 58.0631C91.2975 57.973 91.8995 58.0379 92.4558 58.2513C93.012 58.4648 93.5033 58.8194 93.8813 59.2805C94.4345 59.9551 94.711 60.8151 94.6549 61.6863C94.5987 62.5574 94.2141 63.3747 93.5789 63.9724L87.7299 69.4765Z" fill="#FFB8B8"/>
<path d="M39.8159 129.774C39.6728 129.249 39.6425 128.699 39.7268 128.16C39.8111 127.622 40.0081 127.108 40.305 126.652L44.6127 120.029C45.6316 118.463 47.1949 117.331 48.9995 116.854C50.804 116.377 52.7211 116.589 54.3787 117.448C52.5683 120.535 52.8207 123.243 55.0039 125.597C51.6147 127.254 48.4823 129.393 45.7036 131.948C45.1964 132.294 44.6138 132.514 44.0045 132.59C43.3952 132.665 42.7768 132.593 42.2007 132.38C41.6247 132.168 41.1077 131.82 40.6929 131.367C40.2781 130.913 39.9774 130.367 39.8159 129.774Z" fill="#2F2E41"/>
<path d="M88.6232 121.115C87.9713 122.203 87.0512 123.106 85.951 123.735C84.8509 124.365 83.6077 124.7 82.3408 124.71L53.7235 124.927L52.4824 117.716L65.1418 113.986L54.4682 105.78L66.1346 92.1043L87.3245 111.889C88.563 113.045 89.3678 114.592 89.6041 116.272C89.8405 117.951 89.4942 119.661 88.6232 121.115Z" fill="#2F2E41"/>
<path d="M49.2553 170.431H42.5532C36.5358 129.112 30.4106 87.6771 48.5106 72.2117L69.8577 75.6929L67.1273 93.8449L55.2126 107.521L49.2553 170.431Z" fill="#2F2E41"/>
<path d="M55.1467 179.791C54.622 179.935 54.073 179.965 53.5358 179.881C52.9985 179.796 52.4852 179.599 52.0296 179.302L44.7526 178.322C43.1889 177.301 42.0594 175.735 41.5832 173.927C41.107 172.12 41.3181 170.199 42.1755 168.539C45.2572 170.352 47.9605 170.099 50.3097 167.912C51.9696 171.269 54.7045 171.065 57.3164 173.893C57.6622 174.401 57.8819 174.985 57.957 175.595C58.0321 176.206 57.9606 176.825 57.7483 177.402C57.536 177.979 57.1891 178.497 56.7366 178.913C56.2841 179.328 55.739 179.63 55.1467 179.791Z" fill="#2F2E41"/>
<path d="M65.1416 44.6108L52.7305 41.627C54.7918 37.4003 54.9615 32.6972 53.9716 27.7021L62.4111 27.4535C62.6756 33.665 63.4756 39.4681 65.1416 44.6108Z" fill="#FFB8B8"/>
<path d="M68.5525 83.1799C59.5177 89.3472 53.1339 83.3909 48.2623 74.201C48.9393 68.5777 47.8432 61.8481 45.8132 54.536C44.9104 51.3108 45.2474 47.8638 46.7578 44.8754C48.2682 41.8871 50.8421 39.5745 53.9714 38.3944L64.645 42.8702C73.7081 50.2706 75.492 58.2867 72.0917 66.7413L68.5525 83.1799Z" fill="#D81F1F"/>
<path d="M42.5534 50.8273L32.6245 56.0491L50.2483 66.4926L52.7006 72.5521C52.8642 72.9565 52.944 73.3901 52.9349 73.8264C52.9258 74.2627 52.8282 74.6926 52.6478 75.0899C52.4675 75.4872 52.2083 75.8435 51.886 76.1371C51.5637 76.4307 51.1851 76.6555 50.7732 76.7978C50.3051 76.9595 49.8059 77.0105 49.3148 76.9467C48.8237 76.8829 48.354 76.706 47.9425 76.43C47.531 76.1541 47.1889 75.7864 46.9429 75.3558C46.697 74.9253 46.5538 74.4435 46.5248 73.9483L46.2768 69.7252L23.8771 62.3204C23.1224 62.0709 22.4343 61.6526 21.8648 61.0973C21.2954 60.5419 20.8596 59.864 20.5904 59.115C20.198 58.0231 20.178 56.8318 20.5336 55.7273C20.8892 54.6229 21.6002 53.6676 22.5554 53.0112L40.5676 40.6323L42.5534 50.8273Z" fill="#FFB8B8"/>
<path d="M52.4821 51.8219C48.3412 50.0039 44.5757 51.9787 39.8228 53.5625L39.0781 40.3836C43.7975 37.8638 48.2972 37.1845 52.4822 39.1404L52.4821 51.8219Z" fill="#D81F1F"/>
<path d="M57.4357 33.9814C61.8121 33.9814 65.3598 30.4275 65.3598 26.0435C65.3598 21.6595 61.8121 18.1056 57.4357 18.1056C53.0594 18.1056 49.5117 21.6595 49.5117 26.0435C49.5117 30.4275 53.0594 33.9814 57.4357 33.9814Z" fill="#FFB8B8"/>
<path d="M66.9154 25.042C59.0699 25.8117 53.0917 24.5264 49.271 20.8666V17.9193H66.2496L66.9154 25.042Z" fill="#2F2E41"/>
</g>
<defs>
<clipPath id="clip0_33_3">
<rect width="264" height="184" fill="white"/>
</clipPath>
</defs>
</svg>
