<svg width="35" height="35" viewBox="0 0 35 35" fill="none" xmlns="http://www.w3.org/2000/svg">
<g clip-path="url(#clip0_398_970)">
<path fill-rule="evenodd" clip-rule="evenodd" d="M0 17.3339C0 12.7379 1.82574 8.33019 5.07557 5.08036C8.3254 1.83053 12.7331 0.00479126 17.3291 0.00479126C21.925 0.00479126 26.3327 1.83053 29.5826 5.08036C32.8324 8.33019 34.6581 12.7379 34.6581 17.3339C34.6581 21.9298 32.8324 26.3375 29.5826 29.5874C26.3327 32.8372 21.925 34.6629 17.3291 34.6629C12.7331 34.6629 8.3254 32.8372 5.07557 29.5874C1.82574 26.3375 0 21.9298 0 17.3339ZM16.3402 24.7507L26.3171 12.2784L24.5149 10.8366L16.0074 21.4674L9.98155 16.4466L8.5028 18.2211L16.3402 24.753V24.7507Z" fill="#D81F1F"/>
</g>
<defs>
<clipPath id="clip0_398_970">
<rect width="34.6581" height="34.6581" fill="white" transform="translate(0 0.00479126)"/>
</clipPath>
</defs>
</svg>
