<svg width="162" height="49" viewBox="0 0 162 49" fill="none" xmlns="http://www.w3.org/2000/svg">
<g id="logo svg" clip-path="url(#clip0_35_110)">
<path id="Vector" fill-rule="evenodd" clip-rule="evenodd" d="M161.373 39.4944C161.806 40.3494 161.944 41.2588 161.944 42.0954C161.944 42.9291 161.795 43.8104 161.373 44.6417C161.042 45.2977 160.618 45.9178 160.077 46.4539C159.534 46.9907 158.907 47.4099 158.244 47.7373C157.403 48.1528 156.513 48.3019 155.67 48.3019C154.826 48.3019 153.937 48.1528 153.096 47.7373C152.433 47.4099 151.806 46.9901 151.263 46.4539C150.722 45.9178 150.298 45.2977 149.966 44.6417C149.545 43.8104 149.396 42.9297 149.396 42.0954C149.396 41.2588 149.534 40.3489 149.966 39.4944C150.291 38.8521 150.708 38.1771 151.263 37.6272C151.806 37.0911 152.433 36.6714 153.096 36.344C153.937 35.9283 154.826 35.7793 155.67 35.7793C156.513 35.7793 157.403 35.9283 158.244 36.344C158.907 36.6714 159.534 37.0906 160.077 37.6272C160.632 38.1771 161.049 38.8521 161.373 39.4944ZM158.89 40.7222C159.075 41.0883 159.169 41.5462 159.169 42.0954C159.169 42.6083 159.075 43.0478 158.89 43.4139C158.669 43.8528 158.409 44.2196 158.114 44.5123C157.817 44.8051 157.447 45.0615 157.003 45.281C156.632 45.464 156.187 45.5558 155.67 45.5558C155.152 45.5558 154.707 45.464 154.337 45.281C153.893 45.0615 153.522 44.8051 153.227 44.5123C152.931 44.2196 152.672 43.8528 152.449 43.4139C152.265 43.0478 152.171 42.6083 152.171 42.0954C152.171 41.5462 152.265 41.0883 152.449 40.7222C152.708 40.2098 152.967 39.8252 153.227 39.5689C153.522 39.276 153.893 39.0196 154.337 38.8001C154.707 38.6171 155.152 38.5253 155.67 38.5253C156.187 38.5253 156.632 38.6171 157.003 38.8001C157.447 39.0196 157.817 39.276 158.114 39.5689C158.373 39.8252 158.631 40.2098 158.89 40.7222Z" fill="#D81F1F"/>
<path id="Vector_2" d="M157.779 41.9858C157.779 41.5804 157.711 41.3484 157.649 41.2268C157.423 40.779 157.242 40.5398 157.132 40.4301C156.958 40.259 156.716 40.0842 156.382 39.9185C156.246 39.8516 156.025 39.7891 155.67 39.7891C155.314 39.7891 155.093 39.8516 154.958 39.9185C154.623 40.0842 154.381 40.259 154.208 40.4301C154.097 40.5398 153.917 40.779 153.69 41.2268C153.629 41.3484 153.56 41.5804 153.56 41.9858C153.56 42.3376 153.623 42.5565 153.69 42.6901C153.858 43.0211 154.034 43.2602 154.208 43.4314C154.381 43.6025 154.623 43.7777 154.958 43.943C155.093 44.0098 155.314 44.073 155.67 44.073C156.025 44.073 156.246 44.0098 156.382 43.943C156.716 43.7777 156.958 43.6025 157.132 43.4314C157.305 43.2602 157.481 43.0211 157.649 42.6901C157.716 42.5565 157.779 42.3376 157.779 41.9858Z" fill="black"/>
<path id="Vector_3" fill-rule="evenodd" clip-rule="evenodd" d="M4.36235 36.6242C7.71776 40.7973 13.4228 43.7973 23.7688 44.1278H33.5565H41.9454H43.6233V43.4324V41.693V39.0406L38.544 39.0286L33.7633 39.059L23.8249 38.9106C21.6659 38.9106 18.9374 38.7436 16.7783 38.3631C14.9532 38.0417 13.3804 37.0416 11.8871 36.0923C11.614 35.9188 11.3427 35.7465 11.0738 35.5807C8.72468 33.8418 7.4853 32.0218 6.37558 30.0159C5.26648 28.0445 4.36233 22.9119 5.03342 19.5814C6.04035 11.4345 10.0668 8.30445 10.0668 8.30445C10.0668 8.30445 16.1073 2.19158 26.9832 5.32167L28.0266 0.800373C20.0901 -0.75304 11.9361 -0.75304 4.87267 7.40879C3.30641 9.21862 0 14.6964 0 21.0121C0 24.451 0.671084 31.407 4.36235 36.6242Z" fill="black"/>
<path id="Vector_4" d="M29.326 23.0841V31.1202H25.0986V8.94482H29.326V21.3202H34.115V16.6165H38.3416V31.1202H34.115V23.0841H29.326Z" fill="black"/>
<path id="Vector_5" d="M42.5241 27.7045L41.4006 31.1203H39.7148L44.1829 17.5128C44.5038 16.5044 45.1372 16.0005 46.0826 16.0005C47.1349 16.0005 47.8484 16.5044 48.2232 17.5128L52.8514 31.1203H48.758L47.7415 27.7045H42.5241ZM44.2099 22.1605L42.9525 25.9126H46.9653L45.8956 22.1325C45.7349 21.535 45.4671 21.2362 45.0925 21.2362C44.8965 21.2362 44.7184 21.3203 44.5576 21.4885L44.2099 22.1605Z" fill="black"/>
<path id="Vector_6" d="M55.8893 21.0127V31.1204H54.2041V19.3048C54.2041 18.5391 54.534 17.8487 55.1937 17.2326C55.5326 16.953 55.9072 16.7383 56.3171 16.5886C56.7277 16.4395 57.1914 16.365 57.7089 16.365C58.7254 16.365 59.5459 16.6262 60.1697 17.1486C60.4912 17.4097 60.7584 17.7836 60.9728 18.2684L63.7014 24.5685L66.4038 18.3246C66.8854 17.1861 67.7859 16.5325 69.106 16.365L69.7747 16.3369C70.7738 16.3369 71.5584 16.5797 72.1292 17.0645C72.7177 17.5499 73.0118 18.1379 73.0118 18.8284V31.1204H68.7851V20.9006C68.7851 20.5273 68.7493 20.2189 68.6781 19.9763C68.6243 19.7151 68.4636 19.575 68.1964 19.5565L67.9556 19.6406C67.8128 19.7151 67.6079 19.9579 67.3401 20.3687L67.2062 20.6484L62.8719 30.8961C62.8188 31.0082 62.6849 31.0827 62.471 31.1204C62.2571 31.1204 61.9983 31.0267 61.6947 30.8401L61.3739 30.0846L57.5213 20.9006L57.3611 20.5649C57.1465 20.1355 56.9774 19.8928 56.8526 19.8367C56.7277 19.7622 56.6207 19.7246 56.5317 19.7246C56.335 19.7246 56.175 19.8737 56.05 20.1725C55.943 20.4528 55.8893 20.7324 55.8893 21.0127Z" fill="black"/>
<path id="Vector_7" d="M80.3519 31.1204V36.9721H76.1245V26.7946V16.6167H82.2779C84.2045 16.6167 85.8095 17.074 87.0938 17.9888C88.3959 18.8845 89.2965 20.126 89.796 21.7128C90.0099 22.4219 90.117 23.1404 90.117 23.8686C90.117 24.5776 90.0099 25.2967 89.796 26.0241C89.3144 27.5926 88.4222 28.8335 87.1206 29.7481C85.8185 30.6629 84.2045 31.1204 82.2779 31.1204H80.3519ZM80.3519 18.4086V29.3564H81.5823C83.4909 29.3564 84.7393 28.0683 85.3279 25.4923C85.3991 25.1751 85.4528 24.8763 85.4886 24.5966C85.5239 24.2978 85.5419 23.971 85.5419 23.6163C85.5419 22.1046 85.1492 20.8631 84.3645 19.8929C83.58 18.9035 82.6525 18.4086 81.5823 18.4086H80.3519Z" fill="black"/>
<path id="Vector_8" d="M96.5943 31.1202L96.0588 31.0922C95.5061 31.0922 95.0154 31.0266 94.5876 30.8959C94.1591 30.7469 93.803 30.5322 93.5173 30.2519C92.9998 29.7481 92.7417 28.9454 92.7417 27.8439V8.94482H96.9684V27.7318C96.9684 28.8149 97.6287 29.3562 98.9481 29.3562H100.232V31.1202H96.5943Z" fill="black"/>
<path id="Vector_9" d="M141.645 24.232V31.1202H137.418V8.94482H141.645V21.6565L146.542 16.6165H149.297L145.365 20.6482L151.785 31.1202H146.595L142.528 23.588L141.645 24.232Z" fill="black"/>
<path id="Vector_10" fill-rule="evenodd" clip-rule="evenodd" d="M131.547 30.1643C132.884 29.1565 133.794 27.8405 134.276 26.2166C134.4 25.7874 134.49 25.386 134.543 25.0127C134.597 24.6203 134.623 24.2286 134.623 23.8367C134.623 21.7269 133.875 19.9445 132.376 18.4883C130.896 17.0143 128.997 16.2766 126.677 16.2766C124.805 16.2766 123.19 16.762 121.835 17.7328C120.48 18.6846 119.561 20.0006 119.08 21.6804C118.955 22.0913 118.865 22.4926 118.812 22.8844C118.758 23.2578 118.732 23.6309 118.732 24.0044C118.732 24.7699 118.839 25.507 119.053 26.2166C119.557 27.9513 120.439 29.2675 121.696 30.1643C121.435 29.9681 121.489 30.0104 121.696 30.1643L124.006 27.7129C123.539 26.6902 123.306 25.51 123.306 24.1725C123.306 22.0632 123.708 20.4204 124.51 19.2445C125.063 18.4418 125.786 18.0405 126.677 18.0405C127.57 18.0405 128.292 18.4418 128.845 19.2445C129.647 20.4204 130.049 21.9888 130.049 23.9483C130.049 25.3955 129.825 26.6299 129.38 27.6515L131.547 30.1643Z" fill="black"/>
<path id="Vector_11" fill-rule="evenodd" clip-rule="evenodd" d="M131.547 30.1643C132.884 29.1565 133.794 27.8405 134.276 26.2166C134.4 25.7874 134.49 25.386 134.543 25.0127C134.597 24.6203 134.623 24.2286 134.623 23.8367C134.623 21.7269 133.875 19.9445 132.376 18.4883C130.896 17.0143 128.997 16.2766 126.677 16.2766C124.805 16.2766 123.19 16.762 121.835 17.7328C120.48 18.6846 119.561 20.0006 119.08 21.6804C118.955 22.0913 118.865 22.4926 118.812 22.8844C118.758 23.2578 118.732 23.6309 118.732 24.0044C118.732 24.7699 118.839 25.507 119.053 26.2166C119.557 27.9513 120.439 29.2675 121.696 30.1643C121.435 29.9681 121.489 30.0104 121.696 30.1643L124.006 27.7129C123.539 26.6902 123.306 25.51 123.306 24.1725C123.306 22.0632 123.708 20.4204 124.51 19.2445C125.063 18.4418 125.786 18.0405 126.677 18.0405C127.57 18.0405 128.292 18.4418 128.845 19.2445C129.647 20.4204 130.049 21.9888 130.049 23.9483C130.049 25.3955 129.825 26.6299 129.38 27.6515L131.547 30.1643Z" fill="black"/>
<path id="Vector_12" fill-rule="evenodd" clip-rule="evenodd" d="M113.786 30.1643C115.123 29.1565 116.033 27.8405 116.515 26.2166C116.639 25.7874 116.728 25.386 116.782 25.0127C116.835 24.6203 116.862 24.2286 116.862 23.8367C116.862 21.7269 116.114 19.9445 114.615 18.4883C113.135 17.0143 111.235 16.2766 108.916 16.2766C107.043 16.2766 105.429 16.762 104.074 17.7328C102.718 18.6846 101.8 20.0006 101.318 21.6804C101.194 22.0913 101.104 22.4926 101.051 22.8844C100.997 23.2578 100.97 23.6309 100.97 24.0044C100.97 24.7699 101.078 25.507 101.292 26.2166C101.796 27.9513 102.677 29.2675 103.935 30.1643C103.674 29.9681 103.727 30.0104 103.935 30.1643L106.245 27.7129C105.778 26.6902 105.545 25.51 105.545 24.1725C105.545 22.0632 105.947 20.4204 106.749 19.2445C107.302 18.4418 108.025 18.0405 108.916 18.0405C109.808 18.0405 110.531 18.4418 111.084 19.2445C111.886 20.4204 112.287 21.9888 112.287 23.9483C112.287 25.3955 112.064 26.6299 111.619 27.6515L113.786 30.1643Z" fill="black"/>
<path id="Vector_13" fill-rule="evenodd" clip-rule="evenodd" d="M113.786 30.1643C115.123 29.1565 116.033 27.8405 116.515 26.2166C116.639 25.7874 116.728 25.386 116.782 25.0127C116.835 24.6203 116.862 24.2286 116.862 23.8367C116.862 21.7269 116.114 19.9445 114.615 18.4883C113.135 17.0143 111.235 16.2766 108.916 16.2766C107.043 16.2766 105.429 16.762 104.074 17.7328C102.718 18.6846 101.8 20.0006 101.318 21.6804C101.194 22.0913 101.104 22.4926 101.051 22.8844C100.997 23.2578 100.97 23.6309 100.97 24.0044C100.97 24.7699 101.078 25.507 101.292 26.2166C101.796 27.9513 102.677 29.2675 103.935 30.1643C103.674 29.9681 103.727 30.0104 103.935 30.1643L106.245 27.7129C105.778 26.6902 105.545 25.51 105.545 24.1725C105.545 22.0632 105.947 20.4204 106.749 19.2445C107.302 18.4418 108.025 18.0405 108.916 18.0405C109.808 18.0405 110.531 18.4418 111.084 19.2445C111.886 20.4204 112.287 21.9888 112.287 23.9483C112.287 25.3955 112.064 26.6299 111.619 27.6515L113.786 30.1643Z" fill="black"/>
<path id="Vector_14" d="M135.388 39.5926V35.1829L145.213 41.7423L135.388 48.3019V44.1127L38.8428 43.814V41.7423V39.3255L135.388 39.5926Z" fill="black" stroke="black"/>
<path id="Vector_15" fill-rule="evenodd" clip-rule="evenodd" d="M161.373 39.4944C161.806 40.3494 161.944 41.2588 161.944 42.0954C161.944 42.9291 161.795 43.8104 161.373 44.6417C161.042 45.2977 160.618 45.9178 160.077 46.4539C159.534 46.9907 158.907 47.4099 158.244 47.7373C157.403 48.1528 156.513 48.3019 155.67 48.3019C154.826 48.3019 153.937 48.1528 153.096 47.7373C152.433 47.4099 151.806 46.9901 151.263 46.4539C150.722 45.9178 150.298 45.2977 149.966 44.6417C149.545 43.8104 149.396 42.9297 149.396 42.0954C149.396 41.2588 149.534 40.3489 149.966 39.4944C150.291 38.8521 150.708 38.1771 151.263 37.6272C151.806 37.0911 152.433 36.6714 153.096 36.344C153.937 35.9283 154.826 35.7793 155.67 35.7793C156.513 35.7793 157.403 35.9283 158.244 36.344C158.907 36.6714 159.534 37.0906 160.077 37.6272C160.632 38.1771 161.049 38.8521 161.373 39.4944ZM158.89 40.7222C159.075 41.0883 159.169 41.5462 159.169 42.0954C159.169 42.6083 159.075 43.0478 158.89 43.4139C158.669 43.8528 158.409 44.2196 158.114 44.5123C157.817 44.8051 157.447 45.0615 157.003 45.281C156.632 45.464 156.187 45.5558 155.67 45.5558C155.152 45.5558 154.707 45.464 154.337 45.281C153.893 45.0615 153.522 44.8051 153.227 44.5123C152.931 44.2196 152.672 43.8528 152.449 43.4139C152.265 43.0478 152.171 42.6083 152.171 42.0954C152.171 41.5462 152.265 41.0883 152.449 40.7222C152.708 40.2098 152.967 39.8252 153.227 39.5689C153.522 39.276 153.893 39.0196 154.337 38.8001C154.707 38.6171 155.152 38.5253 155.67 38.5253C156.187 38.5253 156.632 38.6171 157.003 38.8001C157.447 39.0196 157.817 39.276 158.114 39.5689C158.373 39.8252 158.631 40.2098 158.89 40.7222Z" fill="#D81F1F"/>
<path id="Vector_16" d="M157.779 41.9858C157.779 41.5804 157.711 41.3484 157.649 41.2268C157.423 40.779 157.242 40.5398 157.132 40.4301C156.958 40.259 156.716 40.0842 156.382 39.9185C156.246 39.8516 156.025 39.7891 155.67 39.7891C155.314 39.7891 155.093 39.8516 154.958 39.9185C154.623 40.0842 154.381 40.259 154.208 40.4301C154.097 40.5398 153.917 40.779 153.69 41.2268C153.629 41.3484 153.56 41.5804 153.56 41.9858C153.56 42.3376 153.623 42.5565 153.69 42.6901C153.858 43.0211 154.034 43.2602 154.208 43.4314C154.381 43.6025 154.623 43.7777 154.958 43.943C155.093 44.0098 155.314 44.073 155.67 44.073C156.025 44.073 156.246 44.0098 156.382 43.943C156.716 43.7777 156.958 43.6025 157.132 43.4314C157.305 43.2602 157.481 43.0211 157.649 42.6901C157.716 42.5565 157.779 42.3376 157.779 41.9858Z" fill="black"/>
<path id="Vector_17" d="M29.326 23.0841V31.1202H25.0986V8.94482H29.326V21.3202H34.115V16.6165H38.3416V31.1202H34.115V23.0841H29.326Z" fill="black"/>
<path id="Vector_18" d="M42.5241 27.7045L41.4006 31.1203H39.7148L44.1829 17.5128C44.5038 16.5044 45.1372 16.0005 46.0826 16.0005C47.1349 16.0005 47.8484 16.5044 48.2232 17.5128L52.8514 31.1203H48.758L47.7415 27.7045H42.5241ZM44.2099 22.1605L42.9525 25.9126H46.9653L45.8956 22.1325C45.7349 21.535 45.4671 21.2362 45.0925 21.2362C44.8965 21.2362 44.7184 21.3203 44.5576 21.4885L44.2099 22.1605Z" fill="black"/>
<path id="Vector_19" d="M55.8893 21.0127V31.1204H54.2041V19.3048C54.2041 18.5391 54.534 17.8487 55.1937 17.2326C55.5326 16.953 55.9072 16.7383 56.3171 16.5886C56.7277 16.4395 57.1914 16.365 57.7089 16.365C58.7254 16.365 59.5459 16.6262 60.1697 17.1486C60.4912 17.4097 60.7584 17.7836 60.9728 18.2684L63.7014 24.5685L66.4038 18.3246C66.8854 17.1861 67.7859 16.5325 69.106 16.365L69.7747 16.3369C70.7738 16.3369 71.5584 16.5797 72.1292 17.0645C72.7177 17.5499 73.0118 18.1379 73.0118 18.8284V31.1204H68.7851V20.9006C68.7851 20.5273 68.7493 20.2189 68.6781 19.9763C68.6243 19.7151 68.4636 19.575 68.1964 19.5565L67.9556 19.6406C67.8128 19.7151 67.6079 19.9579 67.3401 20.3687L67.2062 20.6484L62.8719 30.8961C62.8188 31.0082 62.6849 31.0827 62.471 31.1204C62.2571 31.1204 61.9983 31.0267 61.6947 30.8401L61.3739 30.0846L57.5213 20.9006L57.3611 20.5649C57.1465 20.1355 56.9774 19.8928 56.8526 19.8367C56.7277 19.7622 56.6207 19.7246 56.5317 19.7246C56.335 19.7246 56.175 19.8737 56.05 20.1725C55.943 20.4528 55.8893 20.7324 55.8893 21.0127Z" fill="black"/>
<path id="Vector_20" d="M80.3519 31.1204V36.9721H76.1245V26.7946V16.6167H82.2779C84.2045 16.6167 85.8095 17.074 87.0938 17.9888C88.3959 18.8845 89.2965 20.126 89.796 21.7128C90.0099 22.4219 90.117 23.1404 90.117 23.8686C90.117 24.5776 90.0099 25.2967 89.796 26.0241C89.3144 27.5926 88.4222 28.8335 87.1206 29.7481C85.8185 30.6629 84.2045 31.1204 82.2779 31.1204H80.3519ZM80.3519 18.4086V29.3564H81.5823C83.4909 29.3564 84.7393 28.0683 85.3279 25.4923C85.3991 25.1751 85.4528 24.8763 85.4886 24.5966C85.5239 24.2978 85.5419 23.971 85.5419 23.6163C85.5419 22.1046 85.1492 20.8631 84.3645 19.8929C83.58 18.9035 82.6525 18.4086 81.5823 18.4086H80.3519Z" fill="black"/>
<path id="Vector_21" d="M96.5943 31.1202L96.0588 31.0922C95.5061 31.0922 95.0154 31.0266 94.5876 30.8959C94.1591 30.7469 93.803 30.5322 93.5173 30.2519C92.9998 29.7481 92.7417 28.9454 92.7417 27.8439V8.94482H96.9684V27.7318C96.9684 28.8149 97.6287 29.3562 98.9481 29.3562H100.232V31.1202H96.5943Z" fill="black"/>
<path id="Vector_22" d="M141.645 24.232V31.1202H137.418V8.94482H141.645V21.6565L146.542 16.6165H149.297L145.365 20.6482L151.785 31.1202H146.595L142.528 23.588L141.645 24.232Z" fill="black"/>
<path id="Vector_23" fill-rule="evenodd" clip-rule="evenodd" d="M131.547 30.1643C132.884 29.1565 133.794 27.8405 134.276 26.2166C134.4 25.7874 134.49 25.386 134.543 25.0127C134.597 24.6203 134.623 24.2286 134.623 23.8367C134.623 21.7269 133.875 19.9445 132.376 18.4883C130.896 17.0143 128.997 16.2766 126.677 16.2766C124.805 16.2766 123.19 16.762 121.835 17.7328C120.48 18.6846 119.561 20.0006 119.08 21.6804C118.955 22.0913 118.865 22.4926 118.812 22.8844C118.758 23.2578 118.732 23.6309 118.732 24.0044C118.732 24.7699 118.839 25.507 119.053 26.2166C119.557 27.9513 120.439 29.2675 121.696 30.1643C121.435 29.9681 121.489 30.0104 121.696 30.1643L124.006 27.7129C123.539 26.6902 123.306 25.51 123.306 24.1725C123.306 22.0632 123.708 20.4204 124.51 19.2445C125.063 18.4418 125.786 18.0405 126.677 18.0405C127.57 18.0405 128.292 18.4418 128.845 19.2445C129.647 20.4204 130.049 21.9888 130.049 23.9483C130.049 25.3955 129.825 26.6299 129.38 27.6515L131.547 30.1643Z" fill="black"/>
<path id="Vector_24" fill-rule="evenodd" clip-rule="evenodd" d="M131.547 30.1643C132.884 29.1565 133.794 27.8405 134.276 26.2166C134.4 25.7874 134.49 25.386 134.543 25.0127C134.597 24.6203 134.623 24.2286 134.623 23.8367C134.623 21.7269 133.875 19.9445 132.376 18.4883C130.896 17.0143 128.997 16.2766 126.677 16.2766C124.805 16.2766 123.19 16.762 121.835 17.7328C120.48 18.6846 119.561 20.0006 119.08 21.6804C118.955 22.0913 118.865 22.4926 118.812 22.8844C118.758 23.2578 118.732 23.6309 118.732 24.0044C118.732 24.7699 118.839 25.507 119.053 26.2166C119.557 27.9513 120.439 29.2675 121.696 30.1643C121.435 29.9681 121.489 30.0104 121.696 30.1643L124.006 27.7129C123.539 26.6902 123.306 25.51 123.306 24.1725C123.306 22.0632 123.708 20.4204 124.51 19.2445C125.063 18.4418 125.786 18.0405 126.677 18.0405C127.57 18.0405 128.292 18.4418 128.845 19.2445C129.647 20.4204 130.049 21.9888 130.049 23.9483C130.049 25.3955 129.825 26.6299 129.38 27.6515L131.547 30.1643Z" fill="black"/>
<path id="Vector_25" fill-rule="evenodd" clip-rule="evenodd" d="M113.786 30.1643C115.123 29.1565 116.033 27.8405 116.515 26.2166C116.639 25.7874 116.728 25.386 116.782 25.0127C116.835 24.6203 116.862 24.2286 116.862 23.8367C116.862 21.7269 116.114 19.9445 114.615 18.4883C113.135 17.0143 111.235 16.2766 108.916 16.2766C107.043 16.2766 105.429 16.762 104.074 17.7328C102.718 18.6846 101.8 20.0006 101.318 21.6804C101.194 22.0913 101.104 22.4926 101.051 22.8844C100.997 23.2578 100.97 23.6309 100.97 24.0044C100.97 24.7699 101.078 25.507 101.292 26.2166C101.796 27.9513 102.677 29.2675 103.935 30.1643C103.674 29.9681 103.727 30.0104 103.935 30.1643L106.245 27.7129C105.778 26.6902 105.545 25.51 105.545 24.1725C105.545 22.0632 105.947 20.4204 106.749 19.2445C107.302 18.4418 108.025 18.0405 108.916 18.0405C109.808 18.0405 110.531 18.4418 111.084 19.2445C111.886 20.4204 112.287 21.9888 112.287 23.9483C112.287 25.3955 112.064 26.6299 111.619 27.6515L113.786 30.1643Z" fill="black"/>
<path id="Vector_26" fill-rule="evenodd" clip-rule="evenodd" d="M113.786 30.1643C115.123 29.1565 116.033 27.8405 116.515 26.2166C116.639 25.7874 116.728 25.386 116.782 25.0127C116.835 24.6203 116.862 24.2286 116.862 23.8367C116.862 21.7269 116.114 19.9445 114.615 18.4883C113.135 17.0143 111.235 16.2766 108.916 16.2766C107.043 16.2766 105.429 16.762 104.074 17.7328C102.718 18.6846 101.8 20.0006 101.318 21.6804C101.194 22.0913 101.104 22.4926 101.051 22.8844C100.997 23.2578 100.97 23.6309 100.97 24.0044C100.97 24.7699 101.078 25.507 101.292 26.2166C101.796 27.9513 102.677 29.2675 103.935 30.1643C103.674 29.9681 103.727 30.0104 103.935 30.1643L106.245 27.7129C105.778 26.6902 105.545 25.51 105.545 24.1725C105.545 22.0632 105.947 20.4204 106.749 19.2445C107.302 18.4418 108.025 18.0405 108.916 18.0405C109.808 18.0405 110.531 18.4418 111.084 19.2445C111.886 20.4204 112.287 21.9888 112.287 23.9483C112.287 25.3955 112.064 26.6299 111.619 27.6515L113.786 30.1643Z" fill="black"/>
<g id="Union">
<path fill-rule="evenodd" clip-rule="evenodd" d="M23.7688 44.1278C13.4228 43.7973 7.71776 40.7973 4.36235 36.6242C0.671084 31.407 0 24.451 0 21.0121C0 14.6964 3.30641 9.21862 4.87267 7.40879C11.9361 -0.75304 20.0901 -0.75304 28.0266 0.800373L26.9832 5.32167C16.1073 2.19158 10.0668 8.30445 10.0668 8.30445C10.0668 8.30445 6.04035 11.4345 5.03342 19.5814C4.36233 22.9119 5.26648 28.0445 6.37558 30.0159C7.4853 32.0218 8.72468 33.8418 11.0738 35.5807C11.3427 35.7465 11.614 35.9188 11.8871 36.0923L11.8887 36.0934C13.3816 37.0424 14.9539 38.0418 16.7783 38.3631C18.9374 38.7436 21.6659 38.9106 23.8249 38.9106L33.7633 39.059L38.544 39.0286L43.6233 39.0406V39.1317L135.393 39.4074V34.6211L145.212 41.7407L135.393 48.8604V44.3136L43.6233 44.1237V44.1278H41.9454H33.5565H23.7688Z" fill="black"/>
<path d="M4.36235 36.6242L3.95418 36.913L3.96305 36.9256L3.97268 36.9375L4.36235 36.6242ZM23.7688 44.1278L23.7529 44.6275L23.7608 44.6278H23.7688V44.1278ZM4.87267 7.40879L5.25075 7.73598L5.25075 7.73598L4.87267 7.40879ZM28.0266 0.800373L28.5138 0.9128L28.63 0.409L28.1226 0.309684L28.0266 0.800373ZM26.9832 5.32167L26.8449 5.80216L27.3518 5.94804L27.4704 5.43409L26.9832 5.32167ZM10.0668 8.30445L10.3737 8.69921L10.3995 8.67914L10.4225 8.65589L10.0668 8.30445ZM5.03342 19.5814L5.52356 19.6802L5.52731 19.6616L5.52964 19.6428L5.03342 19.5814ZM6.37558 30.0159L6.81311 29.7739L6.81135 29.7708L6.37558 30.0159ZM11.0738 35.5807L10.7763 35.9826L10.7933 35.9952L10.8113 36.0063L11.0738 35.5807ZM11.8871 36.0923L12.1554 35.6704L12.1552 35.6703L11.8871 36.0923ZM11.8887 36.0934L11.6204 36.5153L11.6205 36.5153L11.8887 36.0934ZM16.7783 38.3631L16.8651 37.8707L16.865 37.8707L16.7783 38.3631ZM23.8249 38.9106L23.8324 38.4106H23.8249V38.9106ZM33.7633 39.059L33.7558 39.5591L33.7665 39.559L33.7633 39.059ZM38.544 39.0286L38.5452 38.5285L38.5408 38.5286L38.544 39.0286ZM43.6233 39.0406H44.1233V38.5418L43.6245 38.5406L43.6233 39.0406ZM43.6233 39.1317H43.1233V39.6302L43.6218 39.6317L43.6233 39.1317ZM135.393 39.4074L135.392 39.9074L135.893 39.909V39.4074H135.393ZM135.393 34.6211L135.687 34.2163L134.893 33.6409V34.6211H135.393ZM145.212 41.7407L145.506 42.1455L146.064 41.7407L145.506 41.336L145.212 41.7407ZM135.393 48.8604H134.893V49.8405L135.687 49.2652L135.393 48.8604ZM135.393 44.3136H135.893V43.8146L135.394 43.8136L135.393 44.3136ZM43.6233 44.1237L43.6244 43.6237L43.1233 43.6227V44.1237H43.6233ZM43.6233 44.1278V44.6278H44.1233V44.1278H43.6233ZM3.97268 36.9375C7.44788 41.2596 13.3134 44.2941 23.7529 44.6275L23.7848 43.628C13.5323 43.3006 7.98764 40.335 4.75201 36.3109L3.97268 36.9375ZM-0.5 21.0121C-0.5 24.4841 0.172448 31.568 3.95418 36.913L4.77051 36.3354C1.16972 31.2461 0.5 24.4179 0.5 21.0121H-0.5ZM4.4946 7.08159C2.87361 8.95465 -0.5 14.5441 -0.5 21.0121H0.5C0.5 14.8486 3.73921 9.48258 5.25075 7.73598L4.4946 7.08159ZM28.1226 0.309684C24.1285 -0.472088 20.0288 -0.874241 16.019 -0.0278555C11.9949 0.821543 8.09519 2.92107 4.4946 7.08159L5.25075 7.73598C8.71356 3.73467 12.4226 1.75329 16.2255 0.950585C20.0426 0.144868 23.9882 0.51942 27.9305 1.29106L28.1226 0.309684ZM27.4704 5.43409L28.5138 0.9128L27.5394 0.687946L26.496 5.20924L27.4704 5.43409ZM10.0668 8.30445C10.4225 8.65589 10.4223 8.65607 10.4222 8.65622C10.4222 8.65624 10.422 8.65638 10.422 8.65642C10.4219 8.6565 10.4219 8.65649 10.422 8.65639C10.4222 8.65619 10.4228 8.65563 10.4237 8.65471C10.4255 8.65286 10.4289 8.64959 10.4336 8.64496C10.4431 8.63568 10.4584 8.62093 10.4795 8.60117C10.5216 8.56165 10.5867 8.50211 10.6745 8.42627C10.8501 8.27455 11.1163 8.05779 11.4706 7.80554C12.1794 7.30086 13.2391 6.65548 14.6307 6.10412C17.4074 5.00396 21.523 4.27053 26.8449 5.80216L27.1215 4.84117C21.5674 3.24272 17.2248 4.00068 14.2624 5.17444C12.7844 5.76003 11.6542 6.44724 10.8906 6.99091C10.5087 7.26283 10.218 7.49919 10.0208 7.66954C9.92216 7.75473 9.84687 7.82347 9.79519 7.87196C9.76935 7.89621 9.74941 7.9154 9.7354 7.92907C9.72839 7.9359 9.72287 7.94135 9.71883 7.94536C9.71681 7.94737 9.71517 7.94901 9.71389 7.95029C9.71326 7.95093 9.71271 7.95148 9.71226 7.95193C9.71204 7.95216 9.71177 7.95243 9.71166 7.95254C9.71141 7.95279 9.71119 7.95301 10.0668 8.30445ZM5.52964 19.6428C6.02377 15.6448 7.25609 12.8952 8.35099 11.154C8.89902 10.2826 9.41395 9.66168 9.78727 9.26223C9.97395 9.06248 10.1252 8.9181 10.2275 8.82545C10.2787 8.77913 10.3176 8.74575 10.3425 8.72486C10.355 8.71441 10.3639 8.70709 10.3692 8.70283C10.3718 8.7007 10.3736 8.69934 10.3743 8.69874C10.3747 8.69844 10.3748 8.69833 10.3747 8.69841C10.3747 8.69844 10.3746 8.69853 10.3744 8.69866C10.3743 8.69873 10.3742 8.69887 10.3741 8.6989C10.3739 8.69905 10.3737 8.69921 10.0668 8.30445C9.75997 7.9097 9.75974 7.90988 9.75949 7.91008C9.75938 7.91016 9.75912 7.91037 9.75891 7.91053C9.75849 7.91085 9.75802 7.91123 9.75748 7.91165C9.7564 7.91249 9.75508 7.91353 9.75352 7.91477C9.75041 7.91724 9.74633 7.92049 9.74132 7.92453C9.73129 7.93262 9.71754 7.94387 9.70027 7.95833C9.66573 7.98727 9.61714 8.02909 9.55621 8.08427C9.43437 8.19462 9.26321 8.35842 9.05667 8.57942C8.64356 9.02145 8.08893 9.69228 7.50447 10.6217C6.33439 12.4823 5.04999 15.3712 4.53719 19.5201L5.52964 19.6428ZM6.81135 29.7708C6.30171 28.8649 5.8094 27.1607 5.53181 25.2369C5.25538 23.3213 5.20359 21.2682 5.52356 19.6802L4.54327 19.4827C4.19216 21.2251 4.2569 23.4036 4.54206 25.3797C4.82604 27.3477 5.34035 29.1955 5.93981 30.2611L6.81135 29.7708ZM11.3713 35.1788C9.10066 33.4981 7.90343 31.7448 6.81309 29.7739L5.93807 30.258C7.06716 32.2989 8.3487 34.1856 10.7763 35.9826L11.3713 35.1788ZM12.1552 35.6703C11.8825 35.4971 11.6085 35.323 11.3362 35.1551L10.8113 36.0063C11.0769 36.1701 11.3454 36.3406 11.6189 36.5144L12.1552 35.6703ZM12.157 35.6715L12.1554 35.6704L11.6187 36.5142L11.6204 36.5153L12.157 35.6715ZM16.865 37.8707C15.1545 37.5695 13.6646 36.6298 12.1569 35.6714L11.6205 36.5153C13.0986 37.4549 14.7533 38.5142 16.6916 38.8555L16.865 37.8707ZM23.8249 38.4106C21.6847 38.4106 18.9869 38.2447 16.8651 37.8707L16.6915 38.8555C18.8879 39.2426 21.6471 39.4106 23.8249 39.4106V38.4106ZM33.7708 38.5591L23.8324 38.4107L23.8174 39.4105L33.7558 39.5589L33.7708 38.5591ZM38.5408 38.5286L33.7601 38.559L33.7665 39.559L38.5472 39.5286L38.5408 38.5286ZM43.6245 38.5406L38.5452 38.5286L38.5428 39.5286L43.6221 39.5406L43.6245 38.5406ZM44.1233 39.1317V39.0406H43.1233V39.1317H44.1233ZM43.6218 39.6317L135.392 39.9074L135.395 38.9075L43.6248 38.6317L43.6218 39.6317ZM135.893 39.4074V34.6211H134.893V39.4074H135.893ZM135.1 35.0259L144.919 42.1455L145.506 41.336L135.687 34.2163L135.1 35.0259ZM144.919 41.336L135.1 48.4556L135.687 49.2652L145.506 42.1455L144.919 41.336ZM135.893 48.8604V44.3136H134.893V48.8604H135.893ZM135.394 43.8136L43.6244 43.6237L43.6223 44.6237L135.392 44.8136L135.394 43.8136ZM44.1233 44.1278V44.1237H43.1233V44.1278H44.1233ZM41.9454 44.6278H43.6233V43.6278H41.9454V44.6278ZM33.5565 44.6278H41.9454V43.6278H33.5565V44.6278ZM23.7688 44.6278H33.5565V43.6278H23.7688V44.6278Z" fill="black"/>
</g>
</g>
<defs>
<clipPath id="clip0_35_110">
<rect width="162" height="49" fill="white"/>
</clipPath>
</defs>
</svg>
