<svg width="13" height="22" viewBox="0 0 13 22" fill="none" xmlns="http://www.w3.org/2000/svg">
<path d="M1.75308 21.1667C1.34419 21.1674 0.947926 21.0446 0.63308 20.8197C0.455877 20.6931 0.309399 20.5375 0.202033 20.362C0.0946673 20.1864 0.0285238 19.9943 0.00739099 19.7967C-0.0137418 19.5991 0.0105518 19.3999 0.0788796 19.2104C0.147207 19.0208 0.258226 18.8448 0.405579 18.6924L8.24558 10.6054L0.685581 2.50339C0.540215 2.34906 0.43166 2.17149 0.366154 1.98087C0.300649 1.79025 0.279484 1.59036 0.303878 1.39267C0.328272 1.19498 0.397741 1.00339 0.508295 0.828924C0.61885 0.654457 0.768308 0.500546 0.94808 0.376039C1.12915 0.238687 1.34119 0.135084 1.57089 0.0717329C1.8006 0.00838154 2.04302 -0.0133502 2.28294 0.00790054C2.52285 0.0291512 2.75508 0.092926 2.96505 0.195223C3.17501 0.297519 3.35819 0.436129 3.50308 0.602353L11.9556 9.6549C12.213 9.92487 12.3537 10.2635 12.3537 10.613C12.3537 10.9624 12.213 11.3011 11.9556 11.571L3.20558 20.6236C3.03002 20.8062 2.80702 20.9505 2.55465 21.0449C2.30228 21.1392 2.02767 21.181 1.75308 21.1667Z" fill="#231F20"/>
</svg>
