<svg width="60" height="60" viewBox="0 0 60 60" fill="none" xmlns="http://www.w3.org/2000/svg">
<circle cx="30" cy="30" r="30" fill="#E14E4E" fill-opacity="0.2"/>
<path d="M41.2 43.3997H38.862C38.1194 43.3997 37.4072 43.1047 36.8821 42.5796C36.357 42.0545 36.062 41.3423 36.062 40.5997V33.0817C36.0745 32.7869 35.9854 32.4967 35.8095 32.2597C35.6337 32.0227 35.3818 31.8532 35.096 31.7797C34.9297 31.7544 34.7599 31.765 34.5981 31.8109C34.4363 31.8568 34.2862 31.9369 34.158 32.0457C34.026 32.1577 33.9201 32.2972 33.8475 32.4543C33.775 32.6115 33.7376 32.7826 33.738 32.9557V40.5997C33.738 41.3423 33.443 42.0545 32.9179 42.5796C32.3928 43.1047 31.6806 43.3997 30.938 43.3997H28.6C27.8574 43.3997 27.1452 43.1047 26.6201 42.5796C26.095 42.0545 25.8 41.3423 25.8 40.5997V32.9557C25.8 31.7607 26.0354 30.5774 26.4927 29.4733C26.95 28.3692 27.6203 27.3661 28.4653 26.521C29.3103 25.676 30.3135 25.0057 31.4176 24.5484C32.5216 24.0911 33.705 23.8557 34.9 23.8557C36.095 23.8557 37.2783 24.0911 38.3824 24.5484C39.4865 25.0057 40.4896 25.676 41.3347 26.521C42.1797 27.3661 42.85 28.3692 43.3073 29.4733C43.7646 30.5774 44 31.7607 44 32.9557V40.5997C44 41.3423 43.705 42.0545 43.1799 42.5796C42.6548 43.1047 41.9426 43.3997 41.2 43.3997ZM34.9 28.9657C35.1191 28.9519 35.3389 28.9519 35.558 28.9657C36.4979 29.1465 37.3442 29.6525 37.9483 30.3949C38.5525 31.1373 38.8759 32.0687 38.862 33.0257V40.5997H41.2V32.9557C41.2 31.2848 40.5362 29.6824 39.3548 28.5009C38.1733 27.3195 36.5708 26.6557 34.9 26.6557C33.2291 26.6557 31.6267 27.3195 30.4452 28.5009C29.2637 29.6824 28.6 31.2848 28.6 32.9557V40.5997H30.938V32.9557C30.938 31.9023 31.3545 30.8917 32.0967 30.1442C32.8389 29.3967 33.8466 28.9731 34.9 28.9657Z" fill="#E14E4E"/>
<path d="M21.6 43.4H18.8C18.0574 43.4 17.3452 43.105 16.8201 42.5799C16.295 42.0548 16 41.3427 16 40.6V26.6C16 25.8574 16.295 25.1453 16.8201 24.6202C17.3452 24.095 18.0574 23.8 18.8 23.8H21.6C22.3426 23.8 23.0548 24.095 23.5799 24.6202C24.105 25.1453 24.4 25.8574 24.4 26.6V40.6C24.4 41.3427 24.105 42.0548 23.5799 42.5799C23.0548 43.105 22.3426 43.4 21.6 43.4ZM18.8 26.6V40.6H21.6V26.6H18.8Z" fill="#E14E4E"/>
<path d="M20.2 22.4C19.3693 22.4 18.5573 22.1537 17.8666 21.6922C17.1759 21.2307 16.6376 20.5747 16.3197 19.8073C16.0018 19.0398 15.9186 18.1953 16.0807 17.3806C16.2428 16.5659 16.6428 15.8175 17.2302 15.2302C17.8175 14.6428 18.5659 14.2428 19.3806 14.0807C20.1953 13.9186 21.0398 14.0018 21.8073 14.3197C22.5747 14.6376 23.2307 15.1759 23.6922 15.8666C24.1537 16.5573 24.4 17.3693 24.4 18.2C24.4 19.3139 23.9575 20.3822 23.1698 21.1698C22.3822 21.9575 21.3139 22.4 20.2 22.4ZM20.2 16.8C19.9231 16.8 19.6524 16.8821 19.4222 17.0359C19.192 17.1898 19.0125 17.4084 18.9066 17.6642C18.8006 17.9201 18.7729 18.2016 18.8269 18.4731C18.8809 18.7447 19.0143 18.9942 19.2101 19.19C19.4058 19.3857 19.6553 19.5191 19.9269 19.5731C20.1984 19.6271 20.4799 19.5994 20.7358 19.4934C20.9916 19.3875 21.2102 19.208 21.3641 18.9778C21.5179 18.7476 21.6 18.4769 21.6 18.2C21.6 17.8287 21.4525 17.4726 21.19 17.2101C20.9274 16.9475 20.5713 16.8 20.2 16.8Z" fill="#E14E4E"/>
</svg>
