<svg width="60" height="60" viewBox="0 0 60 60" fill="none" xmlns="http://www.w3.org/2000/svg">
<circle cx="30" cy="30" r="30" fill="#E14E4E" fill-opacity="0.2"/>
<path d="M31.2255 25.8298L25.8272 31.228C25.7007 31.3535 25.6003 31.5027 25.5318 31.6672C25.4633 31.8317 25.428 32.008 25.428 32.1862C25.428 32.3644 25.4633 32.5408 25.5318 32.7052C25.6003 32.8697 25.7007 33.0189 25.8272 33.1444C25.9527 33.2709 26.1019 33.3713 26.2664 33.4398C26.4308 33.5083 26.6072 33.5436 26.7854 33.5436C26.9636 33.5436 27.14 33.5083 27.3044 33.4398C27.4689 33.3713 27.6181 33.2709 27.7436 33.1444L33.1418 27.7461C33.396 27.492 33.5387 27.1473 33.5387 26.7879C33.5387 26.4286 33.396 26.0839 33.1418 25.8298C32.8877 25.5756 32.543 25.4329 32.1837 25.4329C31.8243 25.4329 31.4796 25.5756 31.2255 25.8298Z" fill="#E14E4E"/>
<path d="M29.8624 36.7746L28.1349 38.4886C27.1652 39.4878 25.8615 40.0952 24.4726 40.1947C23.0837 40.2943 21.7067 39.8791 20.6044 39.0284C20.0217 38.5483 19.5462 37.9513 19.2087 37.276C18.8711 36.6007 18.679 35.8621 18.6446 35.1079C18.6103 34.3537 18.7345 33.6007 19.0093 32.8975C19.2841 32.1943 19.7034 31.5566 20.24 31.0255L22.1563 29.0956C22.2828 28.9701 22.3832 28.8209 22.4518 28.6564C22.5203 28.492 22.5555 28.3156 22.5555 28.1374C22.5555 27.9593 22.5203 27.7829 22.4518 27.6184C22.3832 27.454 22.2828 27.3047 22.1563 27.1792C22.0309 27.0527 21.8816 26.9523 21.7172 26.8838C21.5527 26.8153 21.3763 26.78 21.1982 26.78C21.02 26.78 20.8436 26.8153 20.6791 26.8838C20.5147 26.9523 20.3654 27.0527 20.24 27.1792L18.526 28.9067C17.0822 30.3048 16.1948 32.1794 16.0285 34.1823C15.8622 36.1853 16.4283 38.1805 17.6218 39.7977C18.3302 40.7166 19.226 41.4743 20.2497 42.0205C21.2734 42.5666 22.4016 42.8886 23.5593 42.9652C24.7171 43.0418 25.8779 42.8712 26.9646 42.4647C28.0513 42.0581 29.0391 41.425 29.8624 40.6074L31.7787 38.691C32.0329 38.4369 32.1756 38.0922 32.1756 37.7328C32.1756 37.3734 32.0329 37.0288 31.7787 36.7746C31.5246 36.5205 31.1799 36.3777 30.8206 36.3777C30.4612 36.3777 30.1165 36.5205 29.8624 36.7746Z" fill="#E14E4E"/>
<path d="M39.8222 17.638C38.1939 16.4321 36.1823 15.8602 34.1632 16.029C32.1441 16.1979 30.2555 17.096 28.8502 18.5557L27.3927 20.0402C27.2261 20.1613 27.0868 20.316 26.9838 20.4944C26.8808 20.6727 26.8164 20.8707 26.7948 21.0756C26.7731 21.2804 26.7948 21.4875 26.8582 21.6834C26.9217 21.8793 27.0256 22.0597 27.1632 22.213C27.2887 22.3395 27.438 22.4399 27.6024 22.5084C27.7669 22.5769 27.9433 22.6122 28.1214 22.6122C28.2996 22.6122 28.476 22.5769 28.6404 22.5084C28.8049 22.4399 28.9542 22.3395 29.0796 22.213L30.8341 20.445C31.7985 19.4414 33.1006 18.8307 34.4889 18.731C35.8772 18.6313 37.2532 19.0497 38.3511 19.9052C38.9381 20.3854 39.4174 20.9839 39.7576 21.6616C40.0978 22.3394 40.2915 23.0812 40.3258 23.8388C40.3602 24.5964 40.2346 25.3528 39.9571 26.0586C39.6797 26.7643 39.2566 27.4038 38.7155 27.9351L36.7991 29.865C36.6726 29.9905 36.5722 30.1397 36.5037 30.3042C36.4352 30.4686 36.3999 30.645 36.3999 30.8232C36.3999 31.0014 36.4352 31.1778 36.5037 31.3422C36.5722 31.5067 36.6726 31.6559 36.7991 31.7814C36.9246 31.9079 37.0739 32.0083 37.2383 32.0768C37.4028 32.1453 37.5792 32.1806 37.7573 32.1806C37.9355 32.1806 38.1119 32.1453 38.2763 32.0768C38.4408 32.0083 38.5901 31.9079 38.7155 31.7814L40.6319 29.865C41.4472 29.0419 42.0784 28.055 42.4836 26.9696C42.8887 25.8842 43.0587 24.7251 42.9821 23.569C42.9056 22.413 42.5843 21.2864 42.0395 20.2639C41.4947 19.2414 40.7389 18.3463 39.8222 17.638Z" fill="#E14E4E"/>
</svg>
