<svg width="1158" height="351" viewBox="0 0 1158 351" fill="none" xmlns="http://www.w3.org/2000/svg">
<g clip-path="url(#clip0_2_40)">
<path fill-rule="evenodd" clip-rule="evenodd" d="M1153.52 282.909C1156.61 289.034 1157.6 295.548 1157.6 301.541C1157.6 307.513 1156.53 313.826 1153.52 319.781C1151.15 324.48 1148.12 328.922 1144.25 332.762C1140.37 336.607 1135.89 339.61 1131.15 341.955C1125.14 344.932 1118.78 346 1112.75 346C1106.72 346 1100.36 344.932 1094.35 341.955C1089.61 339.61 1085.13 336.603 1081.25 332.762C1077.38 328.922 1074.35 324.48 1071.98 319.781C1068.97 313.826 1067.9 307.517 1067.9 301.541C1067.9 295.548 1068.89 289.03 1071.98 282.909C1074.3 278.308 1077.28 273.473 1081.25 269.534C1085.13 265.694 1089.61 262.687 1094.35 260.342C1100.36 257.364 1106.72 256.297 1112.75 256.297C1118.78 256.297 1125.14 257.364 1131.15 260.342C1135.89 262.687 1140.37 265.69 1144.25 269.534C1148.22 273.473 1151.2 278.308 1153.52 282.909ZM1135.77 291.704C1137.09 294.327 1137.76 297.607 1137.76 301.541C1137.76 305.215 1137.09 308.363 1135.77 310.986C1134.19 314.13 1132.33 316.757 1130.22 318.854C1128.1 320.951 1125.45 322.788 1122.28 324.36C1119.63 325.671 1116.45 326.329 1112.75 326.329C1109.05 326.329 1105.87 325.671 1103.22 324.36C1100.05 322.788 1097.4 320.951 1095.29 318.854C1093.17 316.757 1091.32 314.13 1089.73 310.986C1088.41 308.363 1087.74 305.215 1087.74 301.541C1087.74 297.607 1088.41 294.327 1089.73 291.704C1091.58 288.034 1093.43 285.279 1095.29 283.443C1097.4 281.345 1100.05 279.508 1103.22 277.936C1105.87 276.625 1109.05 275.967 1112.75 275.967C1116.45 275.967 1119.63 276.625 1122.28 277.936C1125.45 279.508 1128.1 281.345 1130.22 283.443C1132.07 285.279 1133.92 288.034 1135.77 291.704Z" fill="#D81F1F"/>
<path d="M1127.83 300.755C1127.83 297.851 1127.34 296.189 1126.9 295.318C1125.28 292.11 1123.99 290.397 1123.2 289.611C1121.96 288.385 1120.23 287.133 1117.84 285.946C1116.87 285.467 1115.29 285.019 1112.75 285.019C1110.21 285.019 1108.63 285.467 1107.66 285.946C1105.27 287.133 1103.54 288.385 1102.3 289.611C1101.51 290.397 1100.22 292.11 1098.6 295.318C1098.16 296.189 1097.67 297.851 1097.67 300.755C1097.67 303.275 1098.12 304.843 1098.6 305.8C1099.8 308.171 1101.06 309.884 1102.3 311.11C1103.54 312.336 1105.27 313.591 1107.66 314.775C1108.63 315.253 1110.21 315.706 1112.75 315.706C1115.29 315.706 1116.87 315.253 1117.84 314.775C1120.23 313.591 1121.96 312.336 1123.2 311.11C1124.44 309.884 1125.7 308.171 1126.9 305.8C1127.38 304.843 1127.83 303.275 1127.83 300.755Z" fill="black"/>
<path fill-rule="evenodd" clip-rule="evenodd" d="M31.1827 262.349C55.1677 292.242 95.9485 313.732 169.903 316.099H239.867H299.832H311.826V311.118V298.658V279.658L275.518 279.572L241.345 279.79L170.304 278.727C154.871 278.727 135.367 277.531 119.934 274.805C106.888 272.503 95.6453 265.339 84.9706 258.539C83.0184 257.296 81.0792 256.062 79.157 254.874C62.3653 242.418 53.506 229.381 45.5736 215.012C37.6456 200.89 31.1826 164.124 35.9796 140.267C43.1773 81.9087 71.9593 59.487 71.9593 59.487C71.9593 59.487 115.137 15.6989 192.88 38.1205L200.338 5.73328C143.607 -5.39423 85.3208 -5.39422 34.8306 53.0711C23.6347 66.0354 0 105.274 0 150.515C0 175.149 4.79701 224.977 31.1827 262.349Z" fill="black"/>
<path d="M209.625 165.358V222.923H179.407V64.0747H209.625V152.723H243.857V119.029H274.07V222.923H243.857V165.358H209.625Z" fill="black"/>
<path d="M303.967 198.455L295.936 222.923H283.886L315.824 125.449C318.118 118.226 322.646 114.616 329.404 114.616C336.926 114.616 342.026 118.226 344.705 125.449L377.788 222.923H348.528L341.262 198.455H303.967ZM316.017 158.742L307.029 185.619H335.713L328.067 158.541C326.918 154.261 325.004 152.121 322.326 152.121C320.925 152.121 319.652 152.723 318.503 153.928L316.017 158.742Z" fill="black"/>
<path d="M399.506 150.519V222.923H387.46V138.285C387.46 132.8 389.818 127.854 394.534 123.441C396.956 121.438 399.634 119.9 402.564 118.828C405.499 117.76 408.814 117.226 412.513 117.226C419.779 117.226 425.644 119.097 430.103 122.839C432.401 124.71 434.311 127.388 435.844 130.861L455.348 175.99L474.665 131.263C478.108 123.108 484.545 118.426 493.981 117.226L498.761 117.025C505.903 117.025 511.511 118.764 515.591 122.237C519.798 125.714 521.9 129.926 521.9 134.872V222.923H491.687V149.716C491.687 147.042 491.431 144.833 490.922 143.095C490.538 141.224 489.389 140.22 487.479 140.088L485.758 140.69C484.737 141.224 483.272 142.963 481.358 145.906L480.401 147.909L449.419 221.316C449.039 222.119 448.082 222.653 446.553 222.923C445.024 222.923 443.174 222.252 441.004 220.915L438.711 215.503L411.172 149.716L410.027 147.311C408.493 144.235 407.284 142.497 406.392 142.095C405.499 141.561 404.734 141.292 404.098 141.292C402.692 141.292 401.548 142.36 400.655 144.5C399.89 146.508 399.506 148.511 399.506 150.519Z" fill="black"/>
<path d="M574.366 222.923V264.84H544.148V191.936V119.029H588.133C601.905 119.029 613.378 122.305 622.558 128.858C631.866 135.274 638.303 144.167 641.874 155.534C643.403 160.613 644.168 165.76 644.168 170.976C644.168 176.055 643.403 181.206 641.874 186.417C638.431 197.652 632.054 206.541 622.75 213.093C613.442 219.646 601.905 222.923 588.133 222.923H574.366ZM574.366 131.865V210.287H583.161C596.804 210.287 605.728 201.06 609.935 182.607C610.444 180.335 610.828 178.195 611.084 176.191C611.336 174.051 611.465 171.71 611.465 169.169C611.465 158.34 608.658 149.447 603.049 142.497C597.441 135.41 590.811 131.865 583.161 131.865H574.366Z" fill="black"/>
<path d="M690.471 222.923L686.643 222.722C682.692 222.722 679.185 222.252 676.127 221.316C673.064 220.249 670.518 218.711 668.476 216.703C664.777 213.094 662.932 207.344 662.932 199.454V64.0747H693.145V198.651C693.145 206.409 697.865 210.287 707.296 210.287H716.476V222.923H690.471Z" fill="black"/>
<path d="M1012.5 173.581V222.923H982.287V64.0747H1012.5V155.132L1047.5 119.029H1067.2L1039.09 147.909L1084.98 222.923H1047.88L1018.81 168.968L1012.5 173.581Z" fill="black"/>
<path fill-rule="evenodd" clip-rule="evenodd" d="M940.317 216.075C949.877 208.856 956.379 199.429 959.821 187.797C960.714 184.722 961.351 181.847 961.735 179.173C962.12 176.362 962.308 173.556 962.308 170.749C962.308 155.636 956.955 142.868 946.246 132.437C935.661 121.878 922.086 116.594 905.508 116.594C892.121 116.594 880.583 120.071 870.895 127.025C861.207 133.843 854.638 143.27 851.199 155.303C850.306 158.246 849.665 161.121 849.285 163.927C848.901 166.602 848.713 169.275 848.713 171.95C848.713 177.434 849.478 182.714 851.007 187.797C854.612 200.223 860.913 209.651 869.9 216.075C868.038 214.67 868.418 214.973 869.9 216.075L886.414 198.515C883.078 191.189 881.412 182.735 881.412 173.154C881.412 158.045 884.283 146.277 890.019 137.854C893.971 132.104 899.135 129.229 905.508 129.229C911.886 129.229 917.05 132.104 921.001 137.854C926.738 146.277 929.608 157.512 929.608 171.548C929.608 181.915 928.011 190.757 924.824 198.075L940.317 216.075Z" fill="black"/>
<path fill-rule="evenodd" clip-rule="evenodd" d="M940.317 216.075C949.877 208.856 956.379 199.429 959.821 187.797C960.714 184.722 961.351 181.847 961.735 179.173C962.12 176.362 962.308 173.556 962.308 170.749C962.308 155.636 956.955 142.868 946.246 132.437C935.661 121.878 922.086 116.594 905.508 116.594C892.121 116.594 880.583 120.071 870.895 127.025C861.207 133.843 854.638 143.27 851.199 155.303C850.306 158.246 849.665 161.121 849.285 163.927C848.901 166.602 848.713 169.275 848.713 171.95C848.713 177.434 849.478 182.714 851.007 187.797C854.612 200.223 860.913 209.651 869.9 216.075C868.038 214.67 868.418 214.973 869.9 216.075L886.414 198.515C883.078 191.189 881.412 182.735 881.412 173.154C881.412 158.045 884.283 146.277 890.019 137.854C893.971 132.104 899.135 129.229 905.508 129.229C911.886 129.229 917.05 132.104 921.001 137.854C926.738 146.277 929.608 157.512 929.608 171.548C929.608 181.915 928.011 190.757 924.824 198.075L940.317 216.075Z" fill="black"/>
<path fill-rule="evenodd" clip-rule="evenodd" d="M813.358 216.075C822.918 208.856 829.419 199.429 832.862 187.797C833.754 184.722 834.391 181.847 834.775 179.173C835.156 176.362 835.348 173.556 835.348 170.749C835.348 155.636 829.996 142.868 819.287 132.437C808.702 121.878 795.122 116.594 778.548 116.594C765.161 116.594 753.624 120.071 743.936 127.025C734.243 133.843 727.678 143.27 724.235 155.303C723.347 158.246 722.706 161.121 722.326 163.927C721.941 166.602 721.749 169.275 721.749 171.95C721.749 177.434 722.518 182.714 724.047 187.797C727.652 200.223 733.949 209.651 742.94 216.075C741.078 214.67 741.458 214.973 742.94 216.075L759.454 198.515C756.118 191.189 754.452 182.735 754.452 173.154C754.452 158.045 757.323 146.277 763.06 137.854C767.011 132.104 772.175 129.229 778.548 129.229C784.926 129.229 790.09 132.104 794.042 137.854C799.778 146.277 802.645 157.512 802.645 171.548C802.645 181.915 801.051 190.757 797.865 198.075L813.358 216.075Z" fill="black"/>
<path fill-rule="evenodd" clip-rule="evenodd" d="M813.358 216.075C822.918 208.856 829.419 199.429 832.862 187.797C833.754 184.722 834.391 181.847 834.775 179.173C835.156 176.362 835.348 173.556 835.348 170.749C835.348 155.636 829.996 142.868 819.287 132.437C808.702 121.878 795.122 116.594 778.548 116.594C765.161 116.594 753.624 120.071 743.936 127.025C734.243 133.843 727.678 143.27 724.235 155.303C723.347 158.246 722.706 161.121 722.326 163.927C721.941 166.602 721.749 169.275 721.749 171.95C721.749 177.434 722.518 182.714 724.047 187.797C727.652 200.223 733.949 209.651 742.94 216.075C741.078 214.67 741.458 214.973 742.94 216.075L759.454 198.515C756.118 191.189 754.452 182.735 754.452 173.154C754.452 158.045 757.323 146.277 763.06 137.854C767.011 132.104 772.175 129.229 778.548 129.229C784.926 129.229 790.09 132.104 794.042 137.854C799.778 146.277 802.645 157.512 802.645 171.548C802.645 181.915 801.051 190.757 797.865 198.075L813.358 216.075Z" fill="black"/>
<path d="M967.776 283.613V252.025L1038 299.012L967.776 346V315.992L277.653 313.852V299.012V281.7L967.776 283.613Z" fill="black" stroke="black"/>
<path fill-rule="evenodd" clip-rule="evenodd" d="M1153.52 282.909C1156.61 289.034 1157.6 295.548 1157.6 301.541C1157.6 307.513 1156.53 313.826 1153.52 319.781C1151.15 324.48 1148.12 328.922 1144.25 332.762C1140.37 336.607 1135.89 339.61 1131.15 341.955C1125.14 344.932 1118.78 346 1112.75 346C1106.72 346 1100.36 344.932 1094.35 341.955C1089.61 339.61 1085.13 336.603 1081.25 332.762C1077.38 328.922 1074.35 324.48 1071.98 319.781C1068.97 313.826 1067.9 307.517 1067.9 301.541C1067.9 295.548 1068.89 289.03 1071.98 282.909C1074.3 278.308 1077.28 273.473 1081.25 269.534C1085.13 265.694 1089.61 262.687 1094.35 260.342C1100.36 257.364 1106.72 256.297 1112.75 256.297C1118.78 256.297 1125.14 257.364 1131.15 260.342C1135.89 262.687 1140.37 265.69 1144.25 269.534C1148.22 273.473 1151.2 278.308 1153.52 282.909ZM1135.77 291.704C1137.09 294.327 1137.76 297.607 1137.76 301.541C1137.76 305.215 1137.09 308.363 1135.77 310.986C1134.19 314.13 1132.33 316.757 1130.22 318.854C1128.1 320.951 1125.45 322.788 1122.28 324.36C1119.63 325.671 1116.45 326.329 1112.75 326.329C1109.05 326.329 1105.87 325.671 1103.22 324.36C1100.05 322.788 1097.4 320.951 1095.29 318.854C1093.17 316.757 1091.32 314.13 1089.73 310.986C1088.41 308.363 1087.74 305.215 1087.74 301.541C1087.74 297.607 1088.41 294.327 1089.73 291.704C1091.58 288.034 1093.43 285.279 1095.29 283.443C1097.4 281.345 1100.05 279.508 1103.22 277.936C1105.87 276.625 1109.05 275.967 1112.75 275.967C1116.45 275.967 1119.63 276.625 1122.28 277.936C1125.45 279.508 1128.1 281.345 1130.22 283.443C1132.07 285.279 1133.92 288.034 1135.77 291.704Z" fill="#D81F1F"/>
<path d="M1127.83 300.755C1127.83 297.851 1127.34 296.189 1126.9 295.318C1125.28 292.11 1123.99 290.397 1123.2 289.611C1121.96 288.385 1120.23 287.133 1117.84 285.946C1116.87 285.467 1115.29 285.019 1112.75 285.019C1110.21 285.019 1108.63 285.467 1107.66 285.946C1105.27 287.133 1103.54 288.385 1102.3 289.611C1101.51 290.397 1100.22 292.11 1098.6 295.318C1098.16 296.189 1097.67 297.851 1097.67 300.755C1097.67 303.275 1098.12 304.843 1098.6 305.8C1099.8 308.171 1101.06 309.884 1102.3 311.11C1103.54 312.336 1105.27 313.591 1107.66 314.775C1108.63 315.253 1110.21 315.706 1112.75 315.706C1115.29 315.706 1116.87 315.253 1117.84 314.775C1120.23 313.591 1121.96 312.336 1123.2 311.11C1124.44 309.884 1125.7 308.171 1126.9 305.8C1127.38 304.843 1127.83 303.275 1127.83 300.755Z" fill="black"/>
<path d="M209.625 165.358V222.923H179.407V64.0747H209.625V152.723H243.857V119.029H274.07V222.923H243.857V165.358H209.625Z" fill="black"/>
<path d="M303.967 198.455L295.936 222.923H283.886L315.824 125.449C318.118 118.226 322.646 114.616 329.404 114.616C336.926 114.616 342.026 118.226 344.705 125.449L377.788 222.923H348.528L341.262 198.455H303.967ZM316.017 158.742L307.029 185.619H335.713L328.067 158.541C326.918 154.261 325.004 152.121 322.326 152.121C320.925 152.121 319.652 152.723 318.503 153.928L316.017 158.742Z" fill="black"/>
<path d="M399.506 150.519V222.923H387.46V138.285C387.46 132.8 389.818 127.854 394.534 123.441C396.956 121.438 399.634 119.9 402.564 118.828C405.499 117.76 408.814 117.226 412.513 117.226C419.779 117.226 425.644 119.097 430.103 122.839C432.401 124.71 434.311 127.388 435.844 130.861L455.348 175.99L474.665 131.263C478.108 123.108 484.545 118.426 493.981 117.226L498.761 117.025C505.903 117.025 511.511 118.764 515.591 122.237C519.798 125.714 521.9 129.926 521.9 134.872V222.923H491.687V149.716C491.687 147.042 491.431 144.833 490.922 143.095C490.538 141.224 489.389 140.22 487.479 140.088L485.758 140.69C484.737 141.224 483.272 142.963 481.358 145.906L480.401 147.909L449.419 221.316C449.039 222.119 448.082 222.653 446.553 222.923C445.024 222.923 443.174 222.252 441.004 220.915L438.711 215.503L411.172 149.716L410.027 147.311C408.493 144.235 407.284 142.497 406.392 142.095C405.499 141.561 404.734 141.292 404.098 141.292C402.692 141.292 401.548 142.36 400.655 144.5C399.89 146.508 399.506 148.511 399.506 150.519Z" fill="black"/>
<path d="M574.366 222.923V264.84H544.148V191.936V119.029H588.133C601.905 119.029 613.378 122.305 622.558 128.858C631.866 135.274 638.303 144.167 641.874 155.534C643.403 160.613 644.168 165.76 644.168 170.976C644.168 176.055 643.403 181.206 641.874 186.417C638.431 197.652 632.054 206.541 622.75 213.093C613.442 219.646 601.905 222.923 588.133 222.923H574.366ZM574.366 131.865V210.287H583.161C596.804 210.287 605.728 201.06 609.935 182.607C610.444 180.335 610.828 178.195 611.084 176.191C611.336 174.051 611.465 171.71 611.465 169.169C611.465 158.34 608.658 149.447 603.049 142.497C597.441 135.41 590.811 131.865 583.161 131.865H574.366Z" fill="black"/>
<path d="M690.471 222.923L686.643 222.722C682.692 222.722 679.185 222.252 676.127 221.316C673.064 220.249 670.518 218.711 668.476 216.703C664.777 213.094 662.932 207.344 662.932 199.454V64.0747H693.145V198.651C693.145 206.409 697.865 210.287 707.296 210.287H716.476V222.923H690.471Z" fill="black"/>
<path d="M1012.5 173.581V222.923H982.287V64.0747H1012.5V155.132L1047.5 119.029H1067.2L1039.09 147.909L1084.98 222.923H1047.88L1018.81 168.968L1012.5 173.581Z" fill="black"/>
<path fill-rule="evenodd" clip-rule="evenodd" d="M940.317 216.075C949.877 208.856 956.379 199.429 959.821 187.797C960.714 184.722 961.351 181.847 961.735 179.173C962.12 176.362 962.308 173.556 962.308 170.749C962.308 155.636 956.955 142.868 946.246 132.437C935.661 121.878 922.086 116.594 905.508 116.594C892.121 116.594 880.583 120.071 870.895 127.025C861.207 133.843 854.638 143.27 851.199 155.303C850.306 158.246 849.665 161.121 849.285 163.927C848.901 166.602 848.713 169.275 848.713 171.95C848.713 177.434 849.478 182.714 851.007 187.797C854.612 200.223 860.913 209.651 869.9 216.075C868.038 214.67 868.418 214.973 869.9 216.075L886.414 198.515C883.078 191.189 881.412 182.735 881.412 173.154C881.412 158.045 884.283 146.277 890.019 137.854C893.971 132.104 899.135 129.229 905.508 129.229C911.886 129.229 917.05 132.104 921.001 137.854C926.738 146.277 929.608 157.512 929.608 171.548C929.608 181.915 928.011 190.757 924.824 198.075L940.317 216.075Z" fill="black"/>
<path fill-rule="evenodd" clip-rule="evenodd" d="M940.317 216.075C949.877 208.856 956.379 199.429 959.821 187.797C960.714 184.722 961.351 181.847 961.735 179.173C962.12 176.362 962.308 173.556 962.308 170.749C962.308 155.636 956.955 142.868 946.246 132.437C935.661 121.878 922.086 116.594 905.508 116.594C892.121 116.594 880.583 120.071 870.895 127.025C861.207 133.843 854.638 143.27 851.199 155.303C850.306 158.246 849.665 161.121 849.285 163.927C848.901 166.602 848.713 169.275 848.713 171.95C848.713 177.434 849.478 182.714 851.007 187.797C854.612 200.223 860.913 209.651 869.9 216.075C868.038 214.67 868.418 214.973 869.9 216.075L886.414 198.515C883.078 191.189 881.412 182.735 881.412 173.154C881.412 158.045 884.283 146.277 890.019 137.854C893.971 132.104 899.135 129.229 905.508 129.229C911.886 129.229 917.05 132.104 921.001 137.854C926.738 146.277 929.608 157.512 929.608 171.548C929.608 181.915 928.011 190.757 924.824 198.075L940.317 216.075Z" fill="black"/>
<path fill-rule="evenodd" clip-rule="evenodd" d="M813.358 216.075C822.918 208.856 829.419 199.429 832.862 187.797C833.754 184.722 834.391 181.847 834.775 179.173C835.156 176.362 835.348 173.556 835.348 170.749C835.348 155.636 829.996 142.868 819.287 132.437C808.702 121.878 795.122 116.594 778.548 116.594C765.161 116.594 753.624 120.071 743.936 127.025C734.243 133.843 727.678 143.27 724.235 155.303C723.347 158.246 722.706 161.121 722.326 163.927C721.941 166.602 721.749 169.275 721.749 171.95C721.749 177.434 722.518 182.714 724.047 187.797C727.652 200.223 733.949 209.651 742.94 216.075C741.078 214.67 741.458 214.973 742.94 216.075L759.454 198.515C756.118 191.189 754.452 182.735 754.452 173.154C754.452 158.045 757.323 146.277 763.06 137.854C767.011 132.104 772.175 129.229 778.548 129.229C784.926 129.229 790.09 132.104 794.042 137.854C799.778 146.277 802.645 157.512 802.645 171.548C802.645 181.915 801.051 190.757 797.865 198.075L813.358 216.075Z" fill="black"/>
<path fill-rule="evenodd" clip-rule="evenodd" d="M813.358 216.075C822.918 208.856 829.419 199.429 832.862 187.797C833.754 184.722 834.391 181.847 834.775 179.173C835.156 176.362 835.348 173.556 835.348 170.749C835.348 155.636 829.996 142.868 819.287 132.437C808.702 121.878 795.122 116.594 778.548 116.594C765.161 116.594 753.624 120.071 743.936 127.025C734.243 133.843 727.678 143.27 724.235 155.303C723.347 158.246 722.706 161.121 722.326 163.927C721.941 166.602 721.749 169.275 721.749 171.95C721.749 177.434 722.518 182.714 724.047 187.797C727.652 200.223 733.949 209.651 742.94 216.075C741.078 214.67 741.458 214.973 742.94 216.075L759.454 198.515C756.118 191.189 754.452 182.735 754.452 173.154C754.452 158.045 757.323 146.277 763.06 137.854C767.011 132.104 772.175 129.229 778.548 129.229C784.926 129.229 790.09 132.104 794.042 137.854C799.778 146.277 802.645 157.512 802.645 171.548C802.645 181.915 801.051 190.757 797.865 198.075L813.358 216.075Z" fill="black"/>
<path fill-rule="evenodd" clip-rule="evenodd" d="M169.903 316.099C95.9485 313.732 55.1677 292.242 31.1827 262.349C4.79701 224.977 0 175.149 0 150.515C0 105.274 23.6347 66.0354 34.8306 53.0711C85.3208 -5.39422 143.607 -5.39423 200.338 5.73328L192.88 38.1205C115.137 15.6989 71.9593 59.487 71.9593 59.487C71.9593 59.487 43.1773 81.9087 35.9796 140.267C31.1826 164.124 37.6456 200.89 45.5736 215.012C53.506 229.381 62.3653 242.418 79.157 254.874C81.0792 256.062 83.0184 257.296 84.9706 258.539L84.9822 258.546C95.6535 265.344 106.893 272.504 119.934 274.805C135.367 277.531 154.871 278.727 170.304 278.727L241.345 279.79L275.518 279.572L311.826 279.658V280.311L967.811 282.286V248L1038 299L967.811 350V317.43L311.826 316.07V316.099H299.832H239.867H169.903Z" fill="black"/>
<path d="M31.1827 262.349L30.7742 262.637L30.7831 262.65L30.7927 262.662L31.1827 262.349ZM169.903 316.099L169.887 316.599L169.895 316.599H169.903V316.099ZM34.8306 53.0711L35.209 53.3979L34.8306 53.0711ZM200.338 5.73328L200.825 5.84548L200.941 5.34206L200.434 5.24263L200.338 5.73328ZM192.88 38.1205L192.741 38.6009L193.249 38.7472L193.367 38.2327L192.88 38.1205ZM71.9593 59.487L72.2666 59.8814L72.2924 59.8613L72.3153 59.8381L71.9593 59.487ZM35.9796 140.267L36.4698 140.366L36.4735 140.347L36.4758 140.328L35.9796 140.267ZM45.5736 215.012L46.0113 214.77L46.0096 214.767L45.5736 215.012ZM79.157 254.874L78.8591 255.276L78.8761 255.288L78.8941 255.299L79.157 254.874ZM84.9706 258.539L85.2395 258.117L85.2391 258.117L84.9706 258.539ZM84.9822 258.546L84.7134 258.968L84.7136 258.968L84.9822 258.546ZM119.934 274.805L120.021 274.313L120.021 274.313L119.934 274.805ZM170.304 278.727L170.311 278.227H170.304V278.727ZM241.345 279.79L241.338 280.29L241.348 280.29L241.345 279.79ZM275.518 279.572L275.519 279.072L275.515 279.072L275.518 279.572ZM311.826 279.658H312.326V279.159L311.827 279.158L311.826 279.658ZM311.826 280.311H311.326V280.809L311.824 280.811L311.826 280.311ZM967.811 282.286L967.809 282.786L968.311 282.788V282.286H967.811ZM967.811 248L968.105 247.596L967.311 247.019V248H967.811ZM1038 299L1038.29 299.405L1038.85 299L1038.29 298.595L1038 299ZM967.811 350H967.311V350.981L968.105 350.405L967.811 350ZM967.811 317.43H968.311V316.931L967.812 316.93L967.811 317.43ZM311.826 316.07L311.827 315.57L311.326 315.569V316.07H311.826ZM311.826 316.099V316.599H312.326V316.099H311.826ZM30.7927 262.662C54.8974 292.704 95.8387 314.229 169.887 316.599L169.919 315.599C96.0583 313.235 55.438 291.78 31.5727 262.036L30.7927 262.662ZM-0.5 150.515C-0.5 175.182 4.29834 225.138 30.7742 262.637L31.5912 262.061C5.29568 224.816 0.5 175.116 0.5 150.515H-0.5ZM34.4522 52.7443C23.2016 65.7719 -0.5 105.122 -0.5 150.515H0.5C0.5 105.426 24.0678 66.2989 35.209 53.3979L34.4522 52.7443ZM200.434 5.24263C172.043 -0.326209 143.211 -3.12194 115.141 2.8157C87.0555 8.75637 59.7661 23.432 34.4522 52.7443L35.209 53.3979C60.3853 24.2449 87.4841 9.68784 115.347 3.79406C143.225 -2.10275 171.902 0.665263 200.242 6.22393L200.434 5.24263ZM193.367 38.2327L200.825 5.84548L199.851 5.62108L192.393 38.0083L193.367 38.2327ZM71.9593 59.487C72.3153 59.8381 72.3153 59.8381 72.3154 59.838C72.3157 59.8377 72.316 59.8374 72.3165 59.8369C72.3176 59.8358 72.3193 59.8341 72.3216 59.8317C72.3264 59.827 72.3337 59.8196 72.3437 59.8096C72.3637 59.7898 72.3941 59.7596 72.435 59.7196C72.5168 59.6397 72.6405 59.5203 72.8057 59.365C73.1362 59.0542 73.6329 58.5994 74.2937 58.0273C75.6154 56.8831 77.5934 55.27 80.211 53.4025C85.4462 49.6672 93.2376 44.9153 103.451 40.8604C123.87 32.753 153.986 27.4237 192.741 38.6009L193.019 37.6401C154.031 26.3957 123.687 31.7497 103.082 39.9309C92.7821 44.0203 84.9202 48.8141 79.6301 52.5884C76.985 54.4757 74.9824 56.1084 73.6392 57.2712C72.9675 57.8527 72.4607 58.3167 72.1207 58.6365C71.9507 58.7963 71.8224 58.9201 71.736 59.0045C71.6929 59.0467 71.6602 59.079 71.6381 59.101C71.627 59.1121 71.6186 59.1205 71.6128 59.1264C71.6099 59.1293 71.6076 59.1315 71.606 59.1331C71.6052 59.1339 71.6046 59.1346 71.6042 59.135C71.6036 59.1356 71.6033 59.1359 71.9593 59.487ZM36.4758 140.328C40.0654 111.224 49.0344 91.0989 57.0921 78.2584C61.1215 71.8373 64.9244 67.2358 67.7153 64.2433C69.1108 62.747 70.2533 61.6529 71.0446 60.9347C71.4402 60.5756 71.748 60.3104 71.9558 60.136C72.0597 60.0488 72.1386 59.9842 72.1909 59.9419C72.217 59.9208 72.2365 59.9052 72.2492 59.8951C72.2556 59.8901 72.2602 59.8865 72.2631 59.8842C72.2645 59.883 72.2656 59.8822 72.2661 59.8818C72.2664 59.8815 72.2665 59.8815 72.2667 59.8814C72.2667 59.8814 72.2666 59.8814 71.9593 59.487C71.652 59.0926 71.6517 59.0928 71.6513 59.0932C71.651 59.0934 71.6504 59.0938 71.6498 59.0943C71.6487 59.0952 71.6471 59.0964 71.645 59.098C71.6409 59.1013 71.6351 59.1058 71.6276 59.1118C71.6126 59.1237 71.5907 59.1412 71.5622 59.1643C71.5051 59.2104 71.4215 59.2789 71.3128 59.3701C71.0954 59.5526 70.7779 59.8262 70.3725 60.1942C69.5616 60.9301 68.3993 62.0436 66.984 63.5612C64.1533 66.5964 60.3108 71.2478 56.2451 77.7269C48.1124 90.6868 39.0915 110.951 35.4834 140.206L36.4758 140.328ZM46.0096 214.767C42.0904 207.786 38.5036 195.136 36.4996 181.219C34.4968 167.31 34.0868 152.217 36.4698 140.366L35.4894 140.168C33.0754 152.174 33.4984 167.392 35.5098 181.361C37.5201 195.322 41.1288 208.116 45.1376 215.257L46.0096 214.767ZM79.4549 254.472C62.7416 242.075 53.9244 229.104 46.0113 214.77L45.1359 215.254C53.0876 229.658 61.9889 242.761 78.8591 255.276L79.4549 254.472ZM85.2391 258.117C83.2873 256.874 81.3454 255.639 79.4199 254.449L78.8941 255.299C80.813 256.485 82.7495 257.717 84.702 258.961L85.2391 258.117ZM85.2511 258.125L85.2395 258.117L84.7017 258.961L84.7134 258.968L85.2511 258.125ZM120.021 274.313C107.094 272.032 95.9369 264.932 85.2509 258.125L84.7136 258.968C95.37 265.756 106.692 272.976 119.847 275.297L120.021 274.313ZM170.304 278.227C154.89 278.227 135.417 277.032 120.021 274.313L119.847 275.297C135.317 278.03 154.852 279.227 170.304 279.227V278.227ZM241.352 279.29L170.311 278.227L170.297 279.227L241.338 280.29L241.352 279.29ZM275.515 279.072L241.342 279.29L241.348 280.29L275.521 280.072L275.515 279.072ZM311.827 279.158L275.519 279.072L275.517 280.072L311.825 280.158L311.827 279.158ZM312.326 280.311V279.658H311.326V280.311H312.326ZM311.824 280.811L967.809 282.786L967.812 281.786L311.827 279.811L311.824 280.811ZM968.311 282.286V248H967.311V282.286H968.311ZM967.517 248.404L1037.71 299.405L1038.29 298.595L968.105 247.596L967.517 248.404ZM1037.71 298.595L967.517 349.595L968.105 350.405L1038.29 299.405L1037.71 298.595ZM968.311 350V317.43H967.311V350H968.311ZM967.812 316.93L311.827 315.57L311.825 316.57L967.81 317.93L967.812 316.93ZM312.326 316.099V316.07H311.326V316.099H312.326ZM299.832 316.599H311.826V315.599H299.832V316.599ZM239.867 316.599H299.832V315.599H239.867V316.599ZM169.903 316.599H239.867V315.599H169.903V316.599Z" fill="black"/>
</g>
<defs>
<clipPath id="clip0_2_40">
<rect width="1158" height="351" fill="white"/>
</clipPath>
</defs>
</svg>
