<svg width="60" height="60" viewBox="0 0 60 60" fill="none" xmlns="http://www.w3.org/2000/svg">
<circle cx="30" cy="30" r="30" fill="#E14E4E" fill-opacity="0.2"/>
<path d="M23.7431 44.0026H23.6056C20.8356 43.9783 18.1057 43.3384 15.6134 42.1291C15.155 41.9138 14.7775 41.5573 14.5363 41.112C14.2951 40.6666 14.2027 40.1557 14.2728 39.6541C14.349 39.1491 14.5829 38.6811 14.9409 38.3168C15.299 37.9526 15.7629 37.7108 16.2666 37.626C17.8111 37.4199 19.2969 36.8993 20.6322 36.0963C18.3139 34.2837 16.5291 31.8778 15.467 29.1333C14.405 26.3889 14.1052 23.4082 14.5994 20.5072C14.6664 20.0477 14.864 19.6172 15.1687 19.2667C15.4734 18.9163 15.8724 18.6608 16.3181 18.5307C16.7518 18.3945 17.2159 18.3887 17.6529 18.5139C18.0898 18.6392 18.4803 18.8901 18.7759 19.2354C19.7797 20.5516 21.0411 21.6495 22.4831 22.4621C23.9252 23.2747 25.5177 23.785 27.1634 23.9619C27.2421 21.937 28.1123 20.0238 29.5869 18.6338C30.3232 17.9287 31.1925 17.3772 32.1441 17.0115C33.0956 16.6457 34.1105 16.473 35.1295 16.5034C36.1485 16.5338 37.1513 16.7667 38.0794 17.1885C39.0075 17.6103 39.8423 18.2127 40.5353 18.9604C40.7159 19.12 40.9402 19.2217 41.1792 19.2523C41.4182 19.283 41.661 19.2412 41.8759 19.1322C42.2857 18.939 42.7421 18.8662 43.1917 18.9225C43.6413 18.9787 44.0656 19.1617 44.4151 19.4499C44.7647 19.7382 45.025 20.12 45.1658 20.5506C45.3066 20.9813 45.3221 21.4431 45.2103 21.8822C44.8139 23.5152 44.0628 25.0409 43.0103 26.351C42.7783 31.2404 40.6227 35.8398 37.0135 39.1464C33.4043 42.453 28.6341 44.1986 23.7431 44.0026ZM23.7431 40.5651H23.8806C25.879 40.6338 27.8711 40.3052 29.7414 39.5982C31.6118 38.8913 33.3233 37.8201 34.7765 36.4467C36.2298 35.0734 37.396 33.4252 38.2075 31.5978C39.0191 29.7704 39.4598 27.8 39.5041 25.801C39.5324 25.2531 39.7584 24.7341 40.14 24.3401C40.5592 23.8094 40.9167 23.2328 41.2056 22.6213C40.5865 22.6225 39.974 22.493 39.4083 22.2412C38.8426 21.9895 38.3364 21.6212 37.9228 21.1604C37.5251 20.766 37.0527 20.455 36.5333 20.2454C36.0139 20.0359 35.4579 19.9321 34.8978 19.9401C34.3322 19.9254 33.7692 20.0227 33.2413 20.2262C32.7133 20.4297 32.2307 20.7355 31.8213 21.126C31.2688 21.6502 30.8637 22.3103 30.6466 23.0403C30.4294 23.7702 30.4077 24.5444 30.5838 25.2854L31.0306 27.2447L29.0197 27.3822C26.9591 27.5503 24.8866 27.2684 22.9457 26.5561C21.0048 25.8439 19.2419 24.7183 17.7791 23.2572C17.7163 25.5198 18.2823 27.7554 19.4141 29.7156C20.5459 31.6757 22.1991 33.2836 24.19 34.3604L25.8228 35.2885L24.74 36.8354C23.569 38.3711 21.9645 39.5206 20.1338 40.1354C21.3082 40.4297 22.5152 40.5741 23.7259 40.5651H23.7431Z" fill="#E14E4E"/>
</svg>
